<?xml version="1.0" encoding="utf-8"?>
<!-- Generator: Adobe Illustrator 15.0.0, SVG Export Plug-In . SVG Version: 6.00 Build 0)  -->
<!DOCTYPE svg PUBLIC "-//W3C//DTD SVG 1.1//EN" "http://www.w3.org/Graphics/SVG/1.1/DTD/svg11.dtd">
<svg version="1.1" id="Layer_1" xmlns="http://www.w3.org/2000/svg" xmlns:xlink="http://www.w3.org/1999/xlink" x="0px" y="0px"
	 width="200px" height="200px" viewBox="0 0 200 200" enable-background="new 0 0 200 200" xml:space="preserve">
<g>
	<circle fill-rule="evenodd" clip-rule="evenodd" fill="#FFFFFF" cx="100.217" cy="44.475" r="12.357"/>
	<path fill-rule="evenodd" clip-rule="evenodd" fill="#FFFFFF" d="M117.055,47.475c-0.437,2.948-1.634,5.646-3.398,7.885
		l14.222,14.22h11.282L117.055,47.475z"/>
	<path fill-rule="evenodd" clip-rule="evenodd" fill="#FFFFFF" d="M83.73,47.475c0.438,2.948,1.634,5.646,3.397,7.885L72.905,69.58
		H61.626L83.73,47.475z"/>
	<g>
		<path fill-rule="evenodd" clip-rule="evenodd" fill="#FFFFFF" d="M94.564,103.893c-0.751-0.524-1.92-0.786-3.505-0.786h-2.747
			v7.255h3.24c1.606,0,2.697-0.324,3.274-0.973c0.575-0.649,0.863-1.595,0.863-2.841C95.69,105.303,95.314,104.417,94.564,103.893z"
			/>
		<path fill-rule="evenodd" clip-rule="evenodd" fill="#FFFFFF" d="M68.106,102.674c-1.801,0-3.319,0.679-4.553,2.037
			c-1.235,1.358-1.853,3-1.853,4.924c0,1.925,0.617,3.562,1.853,4.909c1.234,1.349,2.752,2.022,4.553,2.022s3.319-0.674,4.553-2.022
			c1.235-1.348,1.853-2.984,1.853-4.909c0-1.924-0.618-3.565-1.853-4.924C71.426,103.353,69.908,102.674,68.106,102.674z"/>
		<path fill-rule="evenodd" clip-rule="evenodd" fill="#FFFFFF" d="M144.835,73.481H55.34c-7.154,0-13.007,5.854-13.007,13.008
			v49.171c0,7.153,5.853,13.007,13.007,13.007h89.495c7.153,0,13.007-5.854,13.007-13.007V86.489
			C157.842,79.335,151.988,73.481,144.835,73.481z M76.148,117.57c-2.183,2.129-4.869,3.196-8.058,3.196s-5.876-1.067-8.056-3.196
			c-2.182-2.131-3.274-4.78-3.274-7.951c0-3.169,1.092-5.819,3.274-7.949c2.18-2.13,4.867-3.195,8.056-3.195
			s5.875,1.065,8.058,3.195c2.182,2.13,3.272,4.78,3.272,7.949C79.421,112.79,78.33,115.439,76.148,117.57z M98.297,112.676
			c-1.553,1.234-3.925,1.853-7.115,1.853h-2.87v6.019h-4.815V98.969h7.625c3.314,0,5.726,0.644,7.24,1.929
			c1.513,1.287,2.269,3.263,2.269,5.929C100.63,109.491,99.852,111.441,98.297,112.676z M111.789,120.767
			c-2.704,0-4.814-0.583-6.329-1.746c-1.51-1.162-2.268-2.829-2.268-5.002c0-2.171,0.997-3.864,2.995-5.079
			c-1.358-1.193-2.038-2.684-2.038-4.476c0-1.79,0.704-3.236,2.114-4.337c1.409-1.101,3.298-1.652,5.664-1.652
			c0.947,0,2.001,0.13,3.165,0.387c1.163,0.257,2.136,0.58,2.919,0.972l-0.928,4.354c-1.872-0.844-3.479-1.268-4.816-1.268
			c-2.036,0-3.055,0.599-3.055,1.792c0,1.626,1.368,2.438,4.104,2.438h3.457v4.138h-3.396c-2.038,0-3.406,0.205-4.104,0.617
			c-0.763,0.411-1.144,1.09-1.144,2.037c0,1.647,1.357,2.47,4.076,2.47c0.927,0,1.907-0.163,2.947-0.493
			c1.04-0.329,1.919-0.729,2.64-1.204l1.268,4.29C116.92,120.176,114.497,120.767,111.789,120.767z M141.256,120.547h-4.814V108.54
			c0-3.746-1.381-5.621-4.138-5.621c-1.419,0-2.559,0.48-3.412,1.438c-0.854,0.956-1.281,2.352-1.281,4.184v12.007h-4.816V98.969
			h4.816v1.729c0.144-0.166,0.354-0.371,0.632-0.618c0.278-0.248,0.865-0.577,1.761-0.989c0.896-0.41,1.806-0.617,2.731-0.617
			c2.45,0,4.482,0.798,6.098,2.392c1.616,1.597,2.424,3.855,2.424,6.778V120.547z"/>
	</g>
</g>
</svg>
