<?xml version="1.0" encoding="utf-8"?>
<!-- Generator: Adobe Illustrator 16.0.0, SVG Export Plug-In . SVG Version: 6.00 Build 0)  -->
<!DOCTYPE svg PUBLIC "-//W3C//DTD SVG 1.1//EN" "http://www.w3.org/Graphics/SVG/1.1/DTD/svg11.dtd">
<svg version="1.1" id="Layer_1" xmlns="http://www.w3.org/2000/svg" xmlns:xlink="http://www.w3.org/1999/xlink" x="0px" y="0px"
	 width="200px" height="200px" viewBox="0 0 200 200" enable-background="new 0 0 200 200" xml:space="preserve">
<path fill="#FFFFFF" d="M163.754,90.056c0,33.566-27.243,60.737-60.809,60.737c-33.555,0-60.762-27.171-60.762-60.737
	c0-33.59,27.183-60.773,60.762-60.773C136.536,29.283,163.754,56.465,163.754,90.056 M53.557,90.056
	c0,27.219,22.109,49.34,49.363,49.34c27.267,0,49.389-22.121,49.389-49.34c0-27.291-22.097-49.4-49.389-49.4
	C75.642,40.656,53.557,62.741,53.557,90.056"/>
<polyline fill="#FFFFFF" points="132.11,64.1 139.709,71.686 90.345,124.824 63.752,90.681 73.478,82.397 90.345,99.962 
	132.11,64.1 "/>
</svg>
