<?xml version="1.0" encoding="utf-8"?>
<!-- Generator: Adobe Illustrator 15.0.0, SVG Export Plug-In . SVG Version: 6.00 Build 0)  -->
<!DOCTYPE svg PUBLIC "-//W3C//DTD SVG 1.1//EN" "http://www.w3.org/Graphics/SVG/1.1/DTD/svg11.dtd">
<svg version="1.1" id="Layer_1" xmlns="http://www.w3.org/2000/svg" xmlns:xlink="http://www.w3.org/1999/xlink" x="0px" y="0px"
	 width="200px" height="200px" viewBox="0 0 200 200" enable-background="new 0 0 200 200" xml:space="preserve">
<path fill="#FFFFFF" d="M80.176,125.197h0.657c1.063-0.802,2.267-1.429,3.593-1.774c0.162-0.975,0.409-1.915,0.71-2.828h-4.96
	c-1.272,0-2.303,1.028-2.303,2.3C77.874,124.167,78.904,125.197,80.176,125.197z"/>
<path fill="#FFFFFF" d="M127.01,123.423c1.325,0.346,2.528,0.973,3.59,1.774h0.868c1.263,0,2.297-1.03,2.297-2.303
	c0-1.271-1.034-2.3-2.297-2.3h-5.17C126.601,121.508,126.849,122.448,127.01,123.423z"/>
<g>
	<path fill="#FFFFFF" d="M124.231,147.163v2.829c0,2.687,2.184,4.877,4.875,4.877s4.882-2.19,4.882-4.877v-9.455
		C132.314,144.329,128.592,146.995,124.231,147.163z"/>
</g>
<g>
	<path fill="#FFFFFF" d="M86.754,146.821v2.828c0,2.692-2.19,4.879-4.878,4.879c-2.692,0-4.882-2.187-4.882-4.879v-9.455
		C78.673,143.982,82.391,146.656,86.754,146.821z"/>
</g>
<polygon fill="#FFFFFF" points="121.954,70.522 100.136,94.021 88.388,78.915 92.689,75.246 100.136,83.006 118.597,67.167 "/>
<g>
	<path fill="#FFFFFF" d="M173.981,159.11c-2.979,0-5.395-2.415-5.395-5.395V50.307H39.357v103.409c0,2.979-2.415,5.395-5.394,5.395
		c-2.979,0-5.395-2.415-5.395-5.395V44.913c0-2.979,2.415-5.395,5.395-5.395h140.018c2.979,0,5.395,2.416,5.395,5.395v108.803
		C179.376,156.695,176.961,159.11,173.981,159.11z"/>
</g>
<g>
	<path fill="#FFFFFF" d="M187.167,62.368c0,1.986-1.61,3.597-3.596,3.597h-19.66c-1.986,0-3.597-1.61-3.597-3.597l0,0
		c0-1.986,1.61-3.596,3.597-3.596h19.66C185.557,58.772,187.167,60.382,187.167,62.368L187.167,62.368z"/>
	<path fill="#FFFFFF" d="M187.167,69.561c0,1.986-1.61,3.597-3.596,3.597h-19.66c-1.986,0-3.597-1.61-3.597-3.597l0,0
		c0-1.986,1.61-3.596,3.597-3.596h19.66C185.557,65.965,187.167,67.575,187.167,69.561L187.167,69.561z"/>
</g>
<g>
	<path fill="#FFFFFF" d="M187.167,76.754c0,1.986-1.61,3.597-3.596,3.597h-19.66c-1.986,0-3.597-1.61-3.597-3.597l0,0
		c0-1.986,1.61-3.596,3.597-3.596h19.66C185.557,73.158,187.167,74.768,187.167,76.754L187.167,76.754z"/>
	<path fill="#FFFFFF" d="M187.167,83.946c0,1.987-1.61,3.597-3.596,3.597h-19.66c-1.986,0-3.597-1.61-3.597-3.597l0,0
		c0-1.986,1.61-3.596,3.597-3.596h19.66C185.557,80.351,187.167,81.96,187.167,83.946L187.167,83.946z"/>
</g>
<g>
	<path fill="#FFFFFF" d="M187.167,91.379c0,1.986-1.61,3.597-3.596,3.597h-19.66c-1.986,0-3.597-1.61-3.597-3.597l0,0
		c0-1.987,1.61-3.596,3.597-3.596h19.66C185.557,87.783,187.167,89.392,187.167,91.379L187.167,91.379z"/>
	<path fill="#FFFFFF" d="M187.167,98.571c0,1.987-1.61,3.597-3.596,3.597h-19.66c-1.986,0-3.597-1.609-3.597-3.597l0,0
		c0-1.986,1.61-3.596,3.597-3.596h19.66C185.557,94.976,187.167,96.585,187.167,98.571L187.167,98.571z"/>
</g>
<g>
	<path fill="#FFFFFF" d="M187.167,105.765c0,1.986-1.61,3.596-3.596,3.596h-19.66c-1.986,0-3.597-1.609-3.597-3.596l0,0
		c0-1.987,1.61-3.597,3.597-3.597h19.66C185.557,102.168,187.167,103.777,187.167,105.765L187.167,105.765z"/>
	<path fill="#FFFFFF" d="M187.167,112.957c0,1.986-1.61,3.596-3.596,3.596h-19.66c-1.986,0-3.597-1.609-3.597-3.596l0,0
		c0-1.986,1.61-3.597,3.597-3.597h19.66C185.557,109.36,187.167,110.971,187.167,112.957L187.167,112.957z"/>
</g>
<g>
	<path fill="#FFFFFF" d="M187.167,120.15c0,1.985-1.61,3.596-3.596,3.596h-19.66c-1.986,0-3.597-1.61-3.597-3.596l0,0
		c0-1.987,1.61-3.598,3.597-3.598h19.66C185.557,116.553,187.167,118.163,187.167,120.15L187.167,120.15z"/>
	<path fill="#FFFFFF" d="M187.167,127.342c0,1.987-1.61,3.597-3.596,3.597h-19.66c-1.986,0-3.597-1.609-3.597-3.597l0,0
		c0-1.985,1.61-3.596,3.597-3.596h19.66C185.557,123.746,187.167,125.356,187.167,127.342L187.167,127.342z"/>
</g>
<g>
	<path fill="#FFFFFF" d="M187.167,134.535c0,1.986-1.61,3.597-3.596,3.597h-19.66c-1.986,0-3.597-1.61-3.597-3.597l0,0
		c0-1.986,1.61-3.597,3.597-3.597h19.66C185.557,130.938,187.167,132.549,187.167,134.535L187.167,134.535z"/>
	<path fill="#FFFFFF" d="M187.167,141.728c0,1.986-1.61,3.597-3.596,3.597h-19.66c-1.986,0-3.597-1.61-3.597-3.597l0,0
		c0-1.986,1.61-3.596,3.597-3.596h19.66C185.557,138.132,187.167,139.741,187.167,141.728L187.167,141.728z"/>
</g>
<g>
	<path fill="#FFFFFF" d="M47.868,62.368c0,1.986-1.61,3.597-3.596,3.597h-19.66c-1.986,0-3.596-1.61-3.596-3.597l0,0
		c0-1.986,1.61-3.596,3.596-3.596h19.66C46.258,58.772,47.868,60.382,47.868,62.368L47.868,62.368z"/>
	<path fill="#FFFFFF" d="M47.868,69.561c0,1.986-1.61,3.597-3.596,3.597h-19.66c-1.986,0-3.596-1.61-3.596-3.597l0,0
		c0-1.986,1.61-3.596,3.596-3.596h19.66C46.258,65.965,47.868,67.575,47.868,69.561L47.868,69.561z"/>
</g>
<g>
	<path fill="#FFFFFF" d="M47.868,76.754c0,1.986-1.61,3.597-3.596,3.597h-19.66c-1.986,0-3.596-1.61-3.596-3.597l0,0
		c0-1.986,1.61-3.596,3.596-3.596h19.66C46.258,73.158,47.868,74.768,47.868,76.754L47.868,76.754z"/>
	<path fill="#FFFFFF" d="M47.868,83.946c0,1.987-1.61,3.597-3.596,3.597h-19.66c-1.986,0-3.596-1.61-3.596-3.597l0,0
		c0-1.986,1.61-3.596,3.596-3.596h19.66C46.258,80.351,47.868,81.96,47.868,83.946L47.868,83.946z"/>
</g>
<g>
	<path fill="#FFFFFF" d="M47.868,91.379c0,1.986-1.61,3.597-3.596,3.597h-19.66c-1.986,0-3.596-1.61-3.596-3.597l0,0
		c0-1.987,1.61-3.596,3.596-3.596h19.66C46.258,87.783,47.868,89.392,47.868,91.379L47.868,91.379z"/>
	<path fill="#FFFFFF" d="M47.868,98.571c0,1.987-1.61,3.597-3.596,3.597h-19.66c-1.986,0-3.596-1.609-3.596-3.597l0,0
		c0-1.986,1.61-3.596,3.596-3.596h19.66C46.258,94.976,47.868,96.585,47.868,98.571L47.868,98.571z"/>
</g>
<g>
	<path fill="#FFFFFF" d="M47.868,105.765c0,1.986-1.61,3.596-3.596,3.596h-19.66c-1.986,0-3.596-1.609-3.596-3.596l0,0
		c0-1.987,1.61-3.597,3.596-3.597h19.66C46.258,102.168,47.868,103.777,47.868,105.765L47.868,105.765z"/>
	<path fill="#FFFFFF" d="M47.868,112.957c0,1.986-1.61,3.596-3.596,3.596h-19.66c-1.986,0-3.596-1.609-3.596-3.596l0,0
		c0-1.986,1.61-3.597,3.596-3.597h19.66C46.258,109.36,47.868,110.971,47.868,112.957L47.868,112.957z"/>
</g>
<g>
	<path fill="#FFFFFF" d="M47.868,120.15c0,1.985-1.61,3.596-3.596,3.596h-19.66c-1.986,0-3.596-1.61-3.596-3.596l0,0
		c0-1.987,1.61-3.598,3.596-3.598h19.66C46.258,116.553,47.868,118.163,47.868,120.15L47.868,120.15z"/>
	<path fill="#FFFFFF" d="M47.868,127.342c0,1.987-1.61,3.597-3.596,3.597h-19.66c-1.986,0-3.596-1.609-3.596-3.597l0,0
		c0-1.985,1.61-3.596,3.596-3.596h19.66C46.258,123.746,47.868,125.356,47.868,127.342L47.868,127.342z"/>
</g>
<g>
	<path fill="#FFFFFF" d="M47.868,134.535c0,1.986-1.61,3.597-3.596,3.597h-19.66c-1.986,0-3.596-1.61-3.596-3.597l0,0
		c0-1.986,1.61-3.597,3.596-3.597h19.66C46.258,130.938,47.868,132.549,47.868,134.535L47.868,134.535z"/>
	<path fill="#FFFFFF" d="M47.868,141.728c0,1.986-1.61,3.597-3.596,3.597h-19.66c-1.986,0-3.596-1.61-3.596-3.597l0,0
		c0-1.986,1.61-3.596,3.596-3.596h19.66C46.258,138.132,47.868,139.741,47.868,141.728L47.868,141.728z"/>
</g>
<path fill="#FFFFFF" d="M126.1,123.895c-1.632-9.847-10.149-17.367-20.452-17.367c-10.31,0-18.829,7.518-20.464,17.356
	c-4.913,1.27-8.543,5.714-8.543,11.027c0,6.307,5.1,11.407,11.408,11.407h5.323h15.589h14.244c6.301,0,11.408-5.101,11.408-11.407
	C134.613,129.609,130.994,125.172,126.1,123.895z M89.112,143.232c-1.615,0-2.919-1.307-2.919-2.923c0-1.615,1.305-2.93,2.919-2.93
	c1.614,0,2.924,1.314,2.924,2.93C92.037,141.926,90.726,143.232,89.112,143.232z M89.03,126.751
	c0.222-9.292,7.625-16.76,16.729-16.76c9.097,0,16.506,7.468,16.728,16.76H89.03z M111.409,142.927h-5.704h-1.747h-3.479
	c-1.575,0-2.851-1.274-2.851-2.847c0-1.581,1.275-2.857,2.851-2.857h3.479h1.747h5.704c1.572,0,2.847,1.276,2.847,2.857
	C114.256,141.652,112.981,142.927,111.409,142.927z M122.982,143.232c-1.624,0-2.93-1.307-2.93-2.923c0-1.615,1.306-2.93,2.93-2.93
	c1.608,0,2.922,1.314,2.922,2.93C125.904,141.926,124.591,143.232,122.982,143.232z"/>
</svg>
