<?xml version="1.0" encoding="utf-8"?>
<!-- Generator: Adobe Illustrator 16.0.0, SVG Export Plug-In . SVG Version: 6.00 Build 0)  -->
<!DOCTYPE svg PUBLIC "-//W3C//DTD SVG 1.1//EN" "http://www.w3.org/Graphics/SVG/1.1/DTD/svg11.dtd">
<svg version="1.1" xmlns="http://www.w3.org/2000/svg" xmlns:xlink="http://www.w3.org/1999/xlink" x="0px" y="0px" width="40px"
	 height="40px" viewBox="0 0 40 40" enable-background="new 0 0 40 40" xml:space="preserve">
<g id="Layer_1" display="none">
	<rect x="-0.549" y="-0.742" fill="#AF2424" width="41.214" height="41.408"/>
	<path fill="#FFFFFF" d="M10,12h20.8v4.457H10V12z M10,17.943h20.8v4.461H10V17.943z M10,23.887h20.8v4.459H10V23.887z"/>
	<path fill="#FFFFFF" d="M30.513,25.574c0-5.653-5.026-4.395-5.026-8.793c0-0.364-0.032-0.676-0.099-0.939
		c-0.33-2.219-1.811-4-3.722-4.544c0.016-0.076,0.025-0.155,0.025-0.236c0-0.653-0.568-1.188-1.258-1.188
		c-0.69,0-1.255,0.536-1.255,1.188c0,0.083,0.009,0.162,0.025,0.24c-2.146,0.608-3.747,2.773-3.791,5.367
		c-0.001,0.037-0.001,0.077-0.001,0.115c0,4.396-5.026,3.14-5.026,8.793c0,1.495,3.351,2.747,7.83,3.063
		c0.422,0.792,1.257,1.331,2.219,1.331c0.962,0,1.796-0.539,2.221-1.331c4.479-0.316,7.829-1.569,7.829-3.063
		c0-0.003,0-0.011,0-0.014L30.513,25.574z M26.598,26.637c-1.062,0.286-2.317,0.489-3.665,0.603
		c-0.112-1.284-1.188-2.291-2.502-2.291c-1.312,0-2.389,1.007-2.502,2.291c-1.345-0.113-2.602-0.315-3.666-0.604
		c-1.462-0.389-2.163-0.826-2.418-1.061c0.256-0.232,0.956-0.67,2.418-1.058c1.703-0.454,3.896-0.708,6.168-0.708
		c2.273,0,4.465,0.251,6.167,0.708c1.465,0.39,2.166,0.829,2.424,1.058C28.764,25.809,28.067,26.246,26.598,26.637"/>
	<path fill="#FFFFFF" d="M18.334,12.973c-0.897,0-1.766,0.143-2.577,0.418c-0.76,0.262-1.436,0.629-2.008,1.094
		c-1.062,0.859-1.648,1.96-1.648,3.102c0,0.639,0.178,1.253,0.529,1.838c0.367,0.61,0.919,1.166,1.598,1.61
		c0.539,0.356,0.902,0.919,0.997,1.559c0.016,0.104,0.029,0.213,0.039,0.317c0.046-0.043,0.097-0.092,0.144-0.139
		c0.428-0.426,1.002-0.659,1.597-0.659c0.095,0,0.192,0.005,0.287,0.02c0.342,0.041,0.694,0.064,1.041,0.064
		c0.897,0,1.763-0.14,2.573-0.419c0.762-0.26,1.438-0.628,2.012-1.092c1.061-0.86,1.646-1.96,1.646-3.101s-0.586-2.241-1.646-3.102
		c-0.574-0.464-1.25-0.832-2.012-1.094C20.098,13.115,19.23,12.973,18.334,12.973 M18.334,10.708L18.334,10.708
		c4.693,0,8.498,3.08,8.498,6.878s-3.805,6.875-8.498,6.875c-0.452,0-0.894-0.027-1.327-0.081c-1.823,1.817-3.934,2.145-6.038,2.191
		v-0.445c1.137-0.555,2.054-1.565,2.054-2.722c0-0.164-0.013-0.32-0.035-0.474c-1.922-1.262-3.152-3.189-3.152-5.346
		C9.834,13.788,13.64,10.708,18.334,10.708 M27.469,26.121c0,0.989,0.643,1.857,1.627,2.333v0.38c-1.824-0.037-3.5-0.317-5.078-1.88
		c-0.377,0.047-0.76,0.074-1.15,0.074c-1.691,0-3.248-0.457-4.491-1.225c2.562-0.01,4.981-0.828,6.813-2.313
		c0.926-0.748,1.654-1.625,2.168-2.608c0.547-1.042,0.822-2.151,0.822-3.3c0-0.186-0.008-0.369-0.021-0.551
		c1.285,1.06,2.072,2.507,2.072,4.101c0,1.85-1.064,3.5-2.729,4.58C27.48,25.85,27.469,25.983,27.469,26.121"/>
	<path display="inline" fill="#5F2F92" d="M22.937,22.629l2.311-1.153l8.093-8.094l-1.154-1.153l-8.092,8.089L22.937,22.629z
		 M21.227,26.73c-0.571-1.205-1.188-1.82-2.392-2.392l1.789-4.929l2.312-1.407l6.936-6.937h-3.467l-6.938,6.938L16,29.562
		l11.56-3.47l6.937-6.937v-3.467l-6.937,6.936l-1.408,2.313"/>
</g>
<g id="Layer_3">
	<polygon fill="#5F2F92" points="26.34,19.895 16.516,14.222 16.516,25.566 	"/>
</g>
<g id="Layer_2" display="none">
</g>
</svg>
