<?xml version="1.0" encoding="utf-8"?>
<!-- Generator: Adobe Illustrator 16.0.3, SVG Export Plug-In . SVG Version: 6.00 Build 0)  -->
<!DOCTYPE svg PUBLIC "-//W3C//DTD SVG 1.1//EN" "http://www.w3.org/Graphics/SVG/1.1/DTD/svg11.dtd">
<svg version="1.1" id="products" xmlns="http://www.w3.org/2000/svg" xmlns:xlink="http://www.w3.org/1999/xlink" x="0px" y="0px"
	 width="211px" height="158px" viewBox="0 0 211 158" enable-background="new 0 0 211 158" xml:space="preserve">
<g opacity="0.2">
	<path fill="#CCBCF3" d="M79.731,150.179h34.131c3.814,0,6.918-3.618,6.918-8.065v-17.237H72.812v17.237
		C72.812,146.561,75.916,150.179,79.731,150.179z"/>
	<g>
		<g>
			<path fill="#CCBCF3" d="M74.395,48.986c-1.303,2.494-1.55,3.86-1.549,3.868l0.028,0.166v7.296h47.908v-7.394
				c-0.068-0.662-0.731-4.018-6.998-12.278h-33.9C77.041,44.398,75.371,47.117,74.395,48.986z"/>
			<path fill="#CCBCF3" d="M128.107,132.801h0.16v-81.29c0,0,1.086-6.503-20.051-29.807H97.121h-3.78h-7.315
				C64.89,45.008,65.974,51.511,65.974,51.511v81.29h0.161c-0.11,0.694-0.17,1.407-0.17,2.139v10.967
				c0,6.68,4.799,12.095,10.719,12.095h40.876c5.92,0,10.719-5.415,10.719-12.095v-10.967
				C128.278,134.208,128.218,133.495,128.107,132.801z M124.845,142.112c0,6.688-4.927,12.132-10.981,12.132H79.731
				c-6.056,0-10.983-5.442-10.983-12.132v-21.302h56.097V142.112z M124.846,53.291v11.09H68.809v-11.09
				c-0.145-1.862,1.041-8.457,17.256-26.335l0.605-0.667h20.316l0.604,0.667C123.805,44.833,124.99,51.429,124.846,53.291z"/>
		</g>
		<path fill="#CCBCF3" d="M108.059,17.358c0.283-0.748,0.443-1.563,0.443-2.42V6.582c0-3.581-2.729-6.485-6.097-6.485H91.838
			c-3.367,0-6.097,2.904-6.097,6.485v8.357c0,0.856,0.16,1.672,0.443,2.42L108.059,17.358L108.059,17.358z"/>
	</g>
</g>
<path opacity="0.2" fill="#CCBCF3" d="M146.466,20.465c0.254-0.671,0.397-1.402,0.397-2.17v-7.497c0-3.212-2.448-5.817-5.469-5.817
	h-9.479c-3.021,0-5.469,2.605-5.469,5.817v7.497c0,0.768,0.145,1.5,0.397,2.17H146.466z"/>
<path opacity="0.2" fill="#CCBCF3" d="M151.602,41.353h-25.9c4.857,7.612,4.434,10.158,4.434,10.158V59h27.744v-6.633
	C157.816,51.773,157.222,48.763,151.602,41.353z"/>
<path opacity="0.2" fill="#CCBCF3" d="M164.45,124.018h0.144V51.101c0,0,0.975-5.833-17.984-26.737h-9.954h-3.392h-6.562
	c-2.722,3-5.015,5.676-6.976,8.082c0.682,0.857,1.325,1.686,1.924,2.475c1.482-1.784,3.158-3.719,5.088-5.846l0.542-0.598h18.224
	l0.543,0.598c14.544,16.036,15.608,21.952,15.479,23.623v9.948h-30.918v50.616h30.916v19.108c0,6.001-4.418,10.883-9.852,10.883
	h-21.055v2.652c0,0.241-0.021,0.479-0.032,0.717h24.404c5.31,0,9.614-4.857,9.614-10.851v-9.836
	C164.604,125.281,164.549,124.641,164.45,124.018z"/>
<path opacity="0.2" fill="#CCBCF3" d="M130.74,116.908v22.697h20.931c3.423,0,6.206-3.244,6.206-7.235v-15.462H130.74z"/>
</svg>
