<?xml version="1.0" encoding="utf-8"?>
<!-- Generator: Adobe Illustrator 16.0.3, SVG Export Plug-In . SVG Version: 6.00 Build 0)  -->
<!DOCTYPE svg PUBLIC "-//W3C//DTD SVG 1.1//EN" "http://www.w3.org/Graphics/SVG/1.1/DTD/svg11.dtd">
<svg version="1.1" id="Suppliers" xmlns="http://www.w3.org/2000/svg" xmlns:xlink="http://www.w3.org/1999/xlink" x="0px" y="0px"
	 width="211px" height="158px" viewBox="0 0 211 158" enable-background="new 0 0 211 158" xml:space="preserve">
<path opacity="0.15" fill="#CCBCF3" d="M202.846,85.24l-23.337-46.673h-35.005V15.23c0-6.418-5.252-11.668-11.668-11.668H27.822
	c-6.415,0-11.668,5.25-11.668,11.668v93.347l11.668,11.668h14.796c-1.982,3.431-3.127,7.418-3.127,11.668
	c0,12.888,10.449,23.337,23.336,23.337c12.887,0,23.337-10.449,23.337-23.337c0-4.25-1.146-8.232-3.128-11.668h64.604
	c-1.989,3.436-3.129,7.418-3.129,11.668c0,12.888,10.449,23.337,23.337,23.337c12.89,0,23.336-10.449,23.336-23.337
	c0-4.25-1.144-8.232-3.127-11.668h14.79L202.846,85.24L202.846,85.24z M144.504,85.24V56.07h24.191l14.586,29.17H144.504z"/>
</svg>
