<?xml version="1.0" encoding="utf-8"?>
<!-- Generator: Adobe Illustrator 16.0.3, SVG Export Plug-In . SVG Version: 6.00 Build 0)  -->
<!DOCTYPE svg PUBLIC "-//W3C//DTD SVG 1.1//EN" "http://www.w3.org/Graphics/SVG/1.1/DTD/svg11.dtd">
<svg version="1.1" id="home_icon" xmlns="http://www.w3.org/2000/svg" xmlns:xlink="http://www.w3.org/1999/xlink" x="0px" y="0px"
	 width="211px" height="158px" viewBox="0 0 211 158" enable-background="new 0 0 211 158" xml:space="preserve">
<g opacity="0.2">
	<path fill="#CCBCF3" d="M26.051,61.83h2.063c3.313-2.495,7.07-4.451,11.213-5.551c0.496-3.035,1.277-5.965,2.223-8.825H26.06
		c-3.973,0-7.179,3.223-7.179,7.182C18.866,58.607,22.077,61.83,26.051,61.83z"/>
	<path fill="#CCBCF3" d="M172.252,56.279c4.135,1.095,7.893,3.052,11.209,5.551h2.7c3.95,0,7.176-3.223,7.176-7.194
		c0-3.963-3.226-7.182-7.176-7.182h-16.122C170.973,50.313,171.737,53.244,172.252,56.279z"/>
	<g>
		<path fill="#CCBCF3" d="M163.575,130.403v8.827c0,8.381,6.819,15.225,15.219,15.225c8.396,0,15.241-6.844,15.241-15.225v-29.523
			C188.802,121.547,177.195,129.867,163.575,130.403z"/>
	</g>
	<g>
		<path fill="#CCBCF3" d="M46.588,130.403v8.818c0,8.402-6.84,15.232-15.228,15.232c-8.405,0-15.241-6.83-15.241-15.232v-29.515
			C21.365,121.538,32.958,129.888,46.588,130.403z"/>
	</g>
	<path fill="#CCBCF3" d="M169.409,57.75c-5.077-30.731-31.687-54.206-63.832-54.206c-32.204,0-58.795,23.461-63.89,54.191
		c-15.343,3.96-26.67,17.836-26.67,34.422c0,19.685,15.93,35.597,35.6,35.597h16.62h48.676h44.461
		c19.676,0,35.61-15.915,35.61-35.597C195.982,75.601,184.688,61.744,169.409,57.75z M53.942,118.128
		c-5.035,0-9.118-4.093-9.118-9.131c0-5.036,4.083-9.138,9.118-9.138c5.044,0,9.123,4.102,9.123,9.138
		C63.065,114.035,58.995,118.128,53.942,118.128z M53.685,66.678c0.703-29.017,23.813-52.311,52.223-52.311
		c28.412,0,51.54,23.293,52.231,52.311H53.685z M123.559,117.172h-17.819h-5.457h-10.86c-4.915,0-8.901-3.988-8.901-8.888
		c0-4.919,3.987-8.919,8.901-8.919h10.859h5.457h17.818c4.893,0,8.883,4.003,8.883,8.919
		C132.438,113.189,128.449,117.172,123.559,117.172z M159.676,118.128c-5.053,0-9.143-4.093-9.143-9.131
		c0-5.036,4.09-9.138,9.143-9.138c5.016,0,9.112,4.102,9.112,9.138C168.799,114.035,164.696,118.128,159.676,118.128z"/>
</g>
</svg>
