<?xml version="1.0" encoding="utf-8"?>
<!-- Generator: Adobe Illustrator 16.0.3, SVG Export Plug-In . SVG Version: 6.00 Build 0)  -->
<!DOCTYPE svg PUBLIC "-//W3C//DTD SVG 1.1//EN" "http://www.w3.org/Graphics/SVG/1.1/DTD/svg11.dtd">
<svg version="1.1" id="for_sale" xmlns="http://www.w3.org/2000/svg" xmlns:xlink="http://www.w3.org/1999/xlink" x="0px" y="0px"
	 width="211px" height="158px" viewBox="0 0 211 158" enable-background="new 0 0 211 158" xml:space="preserve">
<g opacity="0.2">
	<path fill="#CCBCF3" d="M171.582,7.152H135.34c-8.54,0-20.478,4.944-26.513,10.981L47.95,79.01c-6.042,6.042-6.042,15.928,0,21.969
		l45.339,45.341c6.041,6.038,15.926,6.038,21.969,0l60.869-60.874c6.044-6.042,10.988-17.975,10.988-26.52V22.685
		C187.115,14.142,180.123,7.152,171.582,7.152 M150.874,58.927c-8.583,0-15.534-6.952-15.534-15.533
		c0-8.578,6.951-15.532,15.534-15.532c8.578,0,15.531,6.955,15.531,15.532C166.405,51.975,159.452,58.927,150.874,58.927
		 M25.096,93.653l55.392,55.392c-5.866,3.104-13.339,2.19-18.259-2.726l-45.343-45.347c-6.037-6.037-6.037-15.927,0-21.964
		l60.876-60.876c6.038-6.037,17.976-10.981,26.515-10.981L25.096,86.33C23.078,88.346,23.078,91.64,25.096,93.653"/>
</g>
</svg>
