<?xml version="1.0" encoding="utf-8"?>
<!-- Generator: Adobe Illustrator 16.0.3, SVG Export Plug-In . SVG Version: 6.00 Build 0)  -->
<!DOCTYPE svg PUBLIC "-//W3C//DTD SVG 1.1//EN" "http://www.w3.org/Graphics/SVG/1.1/DTD/svg11.dtd">
<svg version="1.1" id="Jobs" xmlns="http://www.w3.org/2000/svg" xmlns:xlink="http://www.w3.org/1999/xlink" x="0px" y="0px"
	 width="211px" height="158px" viewBox="0 0 211 158" enable-background="new 0 0 211 158" xml:space="preserve">
<path opacity="0.2" fill="#CCBCF3" d="M75.411,32.224c0,17.36,14.085,31.444,31.444,31.444c17.369,0,31.443-14.084,31.443-31.444
	c0-17.365-14.074-31.444-31.443-31.444C89.496,0.78,75.411,14.859,75.411,32.224 M148.791,74.149h-0.026h-5.777l-32.604,66.205
	l12.194-60.964l-15.722-15.722L91.133,79.39l12.195,60.964L70.723,74.149h-5.777h-0.026c-20.952,0-20.952,14.083-20.952,31.444V158
	h125.776v-52.407C169.743,88.234,169.743,74.149,148.791,74.149"/>
</svg>
