<?xml version="1.0" encoding="utf-8"?>
<!-- Generator: Adobe Illustrator 16.0.0, SVG Export Plug-In . SVG Version: 6.00 Build 0)  -->
<!DOCTYPE svg PUBLIC "-//W3C//DTD SVG 1.1//EN" "http://www.w3.org/Graphics/SVG/1.1/DTD/svg11.dtd">
<svg version="1.1" id="Layer_1" xmlns="http://www.w3.org/2000/svg" xmlns:xlink="http://www.w3.org/1999/xlink" x="0px" y="0px"
	 width="232px" height="146px" viewBox="0 0 232 146" enable-background="new 0 0 232 146" xml:space="preserve">
<g>
	<path fill="#2C3687" d="M95.831,112.25c-7.783,12.368-21.549,20.612-37.209,20.612c-15.663,0-29.429-8.244-37.212-20.612h-4.611
		c8.203,14.649,23.871,24.582,41.823,24.582c17.949,0,33.617-9.933,41.822-24.582H95.831z"/>
	<path fill="#2C3687" d="M88.174,112.25c-6.924,8.793-17.653,14.454-29.687,14.454c-12.034,0-22.763-5.661-29.687-14.454h-3.702
		c7.377,10.526,19.589,17.428,33.39,17.428c13.801,0,26.015-6.9,33.392-17.428H88.174z"/>
	<path fill="#2C3687" d="M103.633,112.5c-8.534,16.319-25.622,27.489-45.278,27.489c-19.657,0-36.743-11.17-45.276-27.489H6.462
		c8.988,19.704,28.859,33.44,51.894,33.44c23.033,0,42.906-13.736,51.896-33.44H103.633z"/>
</g>
<g>
	<g>
		<path fill="#2C3687" d="M12.864,72.267v18.979H7.612V72.267H0.949v-4.545h18.578v4.545H12.864z"/>
		<path fill="#2C3687" d="M13.52,91.903H6.956V72.924H0.293v-5.857h19.891v5.857h-6.663L13.52,91.903L13.52,91.903z M8.268,90.592
			h3.939v-18.98h6.663V68.38H1.605v3.231h6.663V90.592z"/>
	</g>
	<g>
		<path fill="#2C3687" d="M32.215,77.584c-1.503,0-2.625,0.532-3.365,1.598s-1.111,2.475-1.111,4.227v7.841h-5.047V73.142h5.047
			v2.389c0.65-0.739,1.465-1.367,2.44-1.883c0.977-0.516,1.969-0.785,2.978-0.809l0.035,4.746L32.215,77.584L32.215,77.584z"/>
		<path fill="#2C3687" d="M28.395,91.903h-6.359v-19.42h6.359v1.533c0.448-0.35,0.941-0.668,1.479-0.951
			c1.061-0.561,2.16-0.857,3.27-0.885l0.667-0.014l0.042,6.071h-1.637c-1.285,0-2.212,0.432-2.828,1.316
			c-0.657,0.949-0.992,2.246-0.992,3.852L28.395,91.903L28.395,91.903z M23.348,90.592h3.734v-7.185
			c0-1.879,0.414-3.426,1.229-4.601c0.868-1.249,2.181-1.88,3.904-1.88h0.314l-0.022-3.377c-0.681,0.1-1.358,0.324-2.022,0.676
			c-0.901,0.479-1.66,1.062-2.254,1.736l-1.148,1.309v-3.475h-3.735V90.592z"/>
	</g>
	<g>
		<path fill="#2C3687" d="M51.569,91.247h-4.746v-2.186c-1.303,1.635-2.91,2.457-4.83,2.457c-1.918,0-3.529-0.557-4.83-1.668
			c-1.301-1.109-1.951-2.592-1.951-4.442c0-1.85,0.674-3.235,2.02-4.156c1.346-0.918,3.186-1.38,5.518-1.38h3.771v-0.102
			c0-1.928-1.021-2.895-3.064-2.895c-0.875,0-1.799,0.174-2.775,0.521c-0.977,0.349-1.801,0.781-2.474,1.297l-2.255-3.266
			c2.377-1.728,5.093-2.592,8.144-2.592c2.199,0,3.995,0.551,5.388,1.649c1.39,1.099,2.086,2.838,2.086,5.215v11.547H51.569z
			 M46.487,84.349v-0.877h-3.166c-2.018,0-3.027,0.631-3.027,1.887c0,0.651,0.24,1.148,0.723,1.498
			c0.482,0.348,1.173,0.521,2.072,0.521c0.895,0,1.687-0.275,2.371-0.824C46.143,86.004,46.487,85.269,46.487,84.349z"/>
		<path fill="#2C3687" d="M41.993,92.176c-2.07,0-3.84-0.617-5.256-1.826c-1.447-1.234-2.184-2.896-2.184-4.94
			c0-2.072,0.777-3.652,2.307-4.699c1.451-0.99,3.434-1.492,5.889-1.492h3.07c-0.181-1.193-0.918-1.685-2.363-1.685
			c-0.797,0-1.655,0.164-2.555,0.484c-0.908,0.322-1.68,0.727-2.295,1.197l-0.547,0.42l-3.013-4.358l0.519-0.376
			c2.482-1.805,5.354-2.719,8.53-2.719c2.339,0,4.289,0.602,5.794,1.79c1.549,1.228,2.336,3.153,2.336,5.73v12.201h-6.059v-1.229
			C44.966,91.672,43.57,92.176,41.993,92.176z M42.748,80.528c-2.186,0-3.918,0.424-5.148,1.265
			c-1.165,0.799-1.732,1.979-1.732,3.615c0,1.665,0.562,2.956,1.721,3.942c1.189,1.017,2.629,1.512,4.404,1.512
			c1.723,0,3.135-0.725,4.315-2.212l1.171-1.472v3.412h3.434v-10.89c0-2.186-0.602-3.725-1.838-4.7
			c-1.268-1-2.941-1.509-4.979-1.509c-2.671,0-5.101,0.707-7.231,2.104l1.51,2.182c0.605-0.385,1.306-0.719,2.086-0.998
			c1.041-0.371,2.049-0.561,2.996-0.561c2.4,0,3.721,1.262,3.721,3.551v0.656l-0.656,0.102H42.748z M43.088,88.033
			c-1.052,0-1.854-0.212-2.456-0.646c-0.651-0.47-0.995-1.171-0.995-2.029c0-1.16,0.639-2.543,3.684-2.543h3.822v1.533
			c0,1.123-0.429,2.037-1.271,2.715C45.071,87.709,44.133,88.033,43.088,88.033z M43.321,84.129c-2.371,0-2.371,0.895-2.371,1.229
			c0,0.441,0.139,0.738,0.449,0.963c0.367,0.269,0.934,0.399,1.689,0.399c0.749,0,1.391-0.224,1.961-0.68
			c0.525-0.424,0.781-0.978,0.781-1.692v-0.221L43.321,84.129L43.321,84.129z"/>
	</g>
	<g>
		<path fill="#2C3687" d="M63.263,91.519c-2.144,0-4.056-0.91-5.738-2.729c-1.683-1.815-2.524-4.069-2.524-6.764
			c0-2.691,0.82-4.896,2.457-6.615c1.639-1.715,3.557-2.573,5.756-2.573c2.199,0,3.993,0.773,5.385,2.322v-8.886h5.05v24.973h-5.05
			v-2.389C67.185,90.633,65.406,91.519,63.263,91.519z M60.082,82.228c0,1.459,0.438,2.653,1.312,3.584
			c0.876,0.932,1.896,1.397,3.062,1.397c1.168,0,2.162-0.467,2.979-1.397c0.819-0.931,1.229-2.131,1.229-3.6
			c0-1.472-0.409-2.693-1.229-3.67c-0.817-0.978-1.823-1.466-3.013-1.466c-1.19,0-2.209,0.495-3.062,1.482
			C60.509,79.548,60.082,80.769,60.082,82.228z"/>
		<path fill="#2C3687" d="M63.263,92.176c-2.323,0-4.415-0.99-6.219-2.938c-1.792-1.936-2.7-4.36-2.7-7.211
			c0-2.854,0.889-5.231,2.64-7.065c1.759-1.846,3.854-2.779,6.229-2.779c1.822,0,3.407,0.499,4.729,1.49v-8.054h6.362v26.285h-6.362
			v-1.421C66.616,91.604,65.048,92.176,63.263,92.176z M63.213,73.493c-2.031,0-3.757,0.775-5.281,2.371
			c-1.529,1.605-2.275,3.621-2.275,6.162c0,2.543,0.769,4.611,2.35,6.319c1.568,1.691,3.288,2.517,5.257,2.517
			c1.95,0,3.528-0.791,4.822-2.412l1.169-1.467v3.607h3.737v-23.66h-3.737v9.94l-1.145-1.272
			C66.838,74.183,65.235,73.493,63.213,73.493z M64.457,87.865c-1.35,0-2.541-0.54-3.539-1.604c-0.989-1.053-1.492-2.41-1.492-4.034
			c0-1.613,0.484-2.992,1.439-4.098c0.978-1.134,2.177-1.709,3.559-1.709c1.387,0,2.569,0.571,3.517,1.698
			c0.917,1.095,1.381,2.47,1.381,4.093c0,1.627-0.468,2.981-1.392,4.032C66.986,87.321,65.817,87.865,64.457,87.865z M64.424,77.733
			c-0.998,0-1.838,0.411-2.565,1.254c-0.755,0.874-1.12,1.933-1.12,3.24c0,1.297,0.372,2.324,1.135,3.135
			c0.752,0.8,1.598,1.19,2.584,1.19c0.979,0,1.791-0.384,2.488-1.175c0.715-0.814,1.063-1.851,1.063-3.166
			c0-1.324-0.352-2.386-1.076-3.25C66.239,78.137,65.418,77.733,64.424,77.733z"/>
	</g>
	<g>
		<path fill="#2C3687" d="M93.943,88.622c-2.044,1.933-4.437,2.896-7.187,2.896c-2.748,0-5.021-0.847-6.815-2.541
			c-1.796-1.695-2.693-3.966-2.693-6.818c0-2.849,0.915-5.114,2.745-6.799c1.827-1.682,3.986-2.522,6.479-2.522
			c2.49,0,4.603,0.752,6.344,2.256c1.739,1.503,2.607,3.565,2.607,6.192v2.691H82.231c0.157,0.987,0.672,1.796,1.548,2.424
			c0.875,0.629,1.863,0.943,2.962,0.943c1.771,0,3.229-0.596,4.376-1.785L93.943,88.622z M89.096,77.886
			c-0.695-0.584-1.543-0.875-2.541-0.875c-1,0-1.916,0.303-2.744,0.91c-0.83,0.604-1.312,1.424-1.449,2.457h7.947
			C90.196,79.299,89.789,78.47,89.096,77.886z"/>
		<path fill="#2C3687" d="M86.756,92.176c-2.91,0-5.355-0.916-7.266-2.724c-1.924-1.813-2.898-4.267-2.898-7.293
			c0-3.024,0.993-5.477,2.955-7.279c1.944-1.792,4.273-2.698,6.924-2.698c2.637,0,4.916,0.812,6.773,2.415
			c1.881,1.626,2.834,3.878,2.834,6.689v3.349h-4.924l3.711,4.021L94.393,89.1C92.235,91.139,89.664,92.176,86.756,92.176z
			 M86.471,73.493c-2.342,0-4.317,0.769-6.034,2.353c-1.704,1.564-2.533,3.633-2.533,6.313c0,2.688,0.813,4.763,2.487,6.341
			c1.684,1.588,3.766,2.362,6.365,2.362c2.387,0,4.436-0.748,6.252-2.283l-1.927-2.09c-1.187,1.002-2.644,1.513-4.342,1.513
			c-1.236,0-2.358-0.359-3.345-1.067c-1.019-0.729-1.63-1.688-1.813-2.854l-0.12-0.759h13.305v-2.035
			c0-2.447-0.778-4.311-2.38-5.697C90.753,74.179,88.819,73.493,86.471,73.493z M83.102,84.635c0.219,0.476,0.568,0.883,1.059,1.233
			c0.768,0.554,1.61,0.82,2.579,0.82c1.601,0,2.877-0.52,3.903-1.584l0.453-0.471L83.102,84.635L83.102,84.635z M91.037,81.034
			h-9.421l0.097-0.743c0.16-1.214,0.737-2.189,1.714-2.901c1.887-1.378,4.477-1.36,6.091-0.007c0.829,0.696,1.313,1.682,1.443,2.928
			L91.037,81.034z M83.2,79.722h6.317c-0.161-0.555-0.44-0.994-0.845-1.335c-0.576-0.483-1.269-0.718-2.117-0.718
			c-0.867,0-1.637,0.254-2.355,0.779C83.727,78.795,83.397,79.215,83.2,79.722z"/>
	</g>
	<g>
		<path fill="#2C3687" d="M108.414,77.584c-1.503,0-2.625,0.532-3.364,1.598c-0.74,1.065-1.111,2.475-1.111,4.227v7.841h-5.049
			V73.142h5.049v2.389c0.652-0.739,1.465-1.367,2.441-1.883c0.976-0.516,1.969-0.785,2.979-0.809l0.033,4.746L108.414,77.584
			L108.414,77.584z"/>
		<path fill="#2C3687" d="M104.594,91.903h-6.361v-19.42h6.361v1.533c0.449-0.353,0.941-0.668,1.479-0.951
			c1.062-0.561,2.16-0.857,3.27-0.885l0.666-0.014l0.043,6.071h-1.637c-1.287,0-2.211,0.432-2.827,1.316
			c-0.659,0.949-0.994,2.243-0.994,3.852L104.594,91.903L104.594,91.903z M99.545,90.592h3.736v-7.185
			c0-1.879,0.413-3.428,1.229-4.601c0.866-1.247,2.179-1.88,3.903-1.88h0.314l-0.023-3.377c-0.681,0.1-1.356,0.324-2.021,0.676
			c-0.9,0.478-1.659,1.061-2.253,1.736l-1.15,1.309v-3.475h-3.736V90.592z"/>
	</g>
	<g>
		<path fill="#2C3687" d="M111.529,90.657c-0.57-0.569-0.859-1.272-0.859-2.104c0-0.828,0.289-1.529,0.859-2.103
			c0.569-0.572,1.272-0.858,2.104-0.858c0.83,0,1.529,0.287,2.103,0.858c0.574,0.572,0.859,1.273,0.859,2.103
			c0,0.83-0.287,1.533-0.859,2.104c-0.571,0.574-1.272,0.861-2.103,0.861C112.801,91.519,112.098,91.231,111.529,90.657z"/>
		<path fill="#2C3687" d="M113.631,92.176c-1.009,0-1.872-0.355-2.568-1.052c-0.696-0.698-1.051-1.562-1.051-2.569
			c0-1.004,0.354-1.867,1.051-2.565c0.696-0.695,1.562-1.052,2.568-1.052s1.87,0.355,2.566,1.052
			c0.697,0.696,1.051,1.562,1.051,2.565c0,1.008-0.354,1.873-1.051,2.569C115.501,91.819,114.639,92.176,113.631,92.176z
			 M113.631,86.25c-0.656,0-1.192,0.219-1.64,0.666c-0.449,0.45-0.668,0.985-0.668,1.639c0,0.656,0.219,1.19,0.668,1.641
			c0.896,0.897,2.383,0.897,3.277,0c0.448-0.446,0.667-0.983,0.667-1.641c0-0.652-0.218-1.189-0.667-1.639
			C114.824,86.468,114.287,86.25,113.631,86.25z"/>
	</g>
	<g>
		<path fill="#2C3687" d="M129.383,87.042c1.682,0,3.199-0.842,4.543-2.524l2.996,3.365c-2.334,2.424-4.857,3.637-7.572,3.637
			c-2.717,0-5.01-0.861-6.883-2.576c-1.875-1.717-2.811-3.959-2.811-6.729c0-2.771,0.947-5.025,2.842-6.769
			c1.896-1.737,4.146-2.606,6.75-2.606c1.301,0,2.619,0.27,3.953,0.809c1.336,0.538,2.51,1.336,3.518,2.389l-2.625,3.437
			c-0.582-0.697-1.295-1.235-2.137-1.617c-0.84-0.381-1.678-0.572-2.508-0.572c-1.324,0-2.463,0.433-3.416,1.297
			c-0.953,0.863-1.43,2.064-1.43,3.601c0,1.537,0.477,2.731,1.43,3.584C126.988,86.613,128.104,87.042,129.383,87.042z"/>
		<path fill="#2C3687" d="M129.35,92.176c-2.873,0-5.336-0.926-7.328-2.75C120.016,87.59,119,85.161,119,82.213
			c0-2.947,1.025-5.389,3.059-7.249c2.012-1.848,4.432-2.782,7.189-2.782c1.381,0,2.797,0.287,4.203,0.856
			c1.414,0.568,2.674,1.425,3.744,2.544l0.389,0.403l-3.465,4.532l-0.525-0.628c-0.516-0.616-1.156-1.103-1.906-1.44
			c-0.754-0.339-1.506-0.513-2.236-0.513c-1.166,0-2.141,0.368-2.975,1.125c-0.818,0.74-1.215,1.761-1.215,3.115
			c0,1.354,0.395,2.368,1.209,3.096c0.838,0.748,1.793,1.112,2.914,1.112c1.486,0,2.803-0.745,4.031-2.278L133.9,83.5l3.916,4.401
			l-0.42,0.437C134.941,90.885,132.238,92.176,129.35,92.176z M129.248,73.493c-2.455,0-4.518,0.799-6.305,2.437
			c-1.77,1.627-2.633,3.681-2.633,6.283c0,2.601,0.85,4.645,2.598,6.246c1.74,1.594,3.906,2.403,6.441,2.403
			c2.354,0,4.594-1.012,6.67-3.005l-2.086-2.345c-1.352,1.45-2.879,2.185-4.551,2.185c-1.439,0-2.715-0.486-3.787-1.443
			c-1.096-0.98-1.648-2.353-1.648-4.076s0.555-3.097,1.646-4.086c1.734-1.574,4.211-1.933,6.635-0.838
			c0.678,0.309,1.285,0.711,1.812,1.205l1.807-2.363c-0.85-0.79-1.818-1.408-2.889-1.842
			C131.707,73.75,130.461,73.493,129.248,73.493z"/>
	</g>
	<g>
		<path fill="#2C3687" d="M157.924,82.194c0,2.625-0.91,4.836-2.727,6.631c-1.816,1.794-4.1,2.693-6.848,2.693
			c-2.75,0-5.033-0.899-6.852-2.693c-1.816-1.795-2.727-4.006-2.727-6.631s0.908-4.84,2.727-6.647
			c1.818-1.807,4.102-2.709,6.852-2.709c2.748,0,5.029,0.902,6.848,2.709C157.014,77.354,157.924,79.569,157.924,82.194z
			 M143.855,82.194c0,1.48,0.424,2.688,1.264,3.617c0.84,0.932,1.92,1.397,3.23,1.397c1.312,0,2.391-0.467,3.23-1.397
			s1.26-2.137,1.26-3.617c0-1.479-0.42-2.691-1.26-3.635c-0.842-0.943-1.918-1.414-3.23-1.414c-1.311,0-2.393,0.471-3.23,1.414
			C144.279,79.503,143.855,80.715,143.855,82.194z"/>
		<path fill="#2C3687" d="M148.35,92.176c-2.918,0-5.377-0.972-7.311-2.884c-1.939-1.914-2.92-4.303-2.92-7.098
			c0-2.793,0.979-5.187,2.918-7.113c1.938-1.926,4.396-2.899,7.312-2.899c2.914,0,5.375,0.975,7.312,2.899
			c1.938,1.928,2.92,4.32,2.92,7.113c0,2.795-0.984,5.184-2.922,7.098C153.725,91.204,151.264,92.176,148.35,92.176z M148.35,73.493
			c-2.592,0-4.682,0.822-6.389,2.519c-1.703,1.694-2.531,3.717-2.531,6.184c0,2.466,0.828,4.48,2.531,6.164
			c1.705,1.683,3.793,2.504,6.389,2.504c2.592,0,4.682-0.821,6.389-2.504c1.701-1.684,2.529-3.698,2.529-6.164
			c0-2.467-0.828-4.487-2.531-6.184C153.029,74.315,150.939,73.493,148.35,73.493z M148.35,87.865c-1.502,0-2.752-0.543-3.721-1.611
			c-0.947-1.053-1.43-2.417-1.43-4.06c0-1.64,0.48-3.01,1.428-4.072c0.967-1.081,2.217-1.633,3.723-1.633
			c1.502,0,2.752,0.552,3.721,1.633c0.947,1.062,1.428,2.434,1.428,4.072c0,1.643-0.482,3.007-1.432,4.06
			C151.1,87.322,149.85,87.865,148.35,87.865z M148.35,77.802c-1.129,0-2.025,0.391-2.744,1.194
			c-0.734,0.826-1.094,1.871-1.094,3.197c0,1.322,0.357,2.363,1.094,3.178c0.719,0.796,1.615,1.182,2.744,1.182
			s2.025-0.386,2.742-1.182c0.734-0.813,1.092-1.854,1.092-3.178c0-1.326-0.355-2.372-1.094-3.197
			C150.373,78.192,149.477,77.802,148.35,77.802z"/>
	</g>
	<g>
		<path fill="#2C3687" d="M161.844,90.657c-0.572-0.569-0.855-1.272-0.855-2.104c0-0.828,0.283-1.529,0.855-2.103
			c0.572-0.572,1.273-0.858,2.105-0.858c0.83,0,1.529,0.287,2.104,0.858c0.572,0.572,0.859,1.273,0.859,2.103
			c0,0.83-0.287,1.533-0.859,2.104c-0.572,0.574-1.271,0.861-2.104,0.861S162.416,91.231,161.844,90.657z"/>
		<path fill="#2C3687" d="M163.949,92.176c-1.008,0-1.869-0.355-2.566-1.052c-0.697-0.698-1.051-1.562-1.051-2.569
			c0-1.004,0.354-1.867,1.051-2.565c0.697-0.695,1.559-1.052,2.566-1.052c1.006,0,1.871,0.355,2.566,1.052
			c0.697,0.697,1.053,1.562,1.053,2.565c0,1.008-0.355,1.873-1.053,2.569C165.82,91.819,164.955,92.176,163.949,92.176z
			 M163.949,86.25c-0.654,0-1.191,0.219-1.641,0.666c-0.449,0.45-0.666,0.985-0.666,1.639c0,0.656,0.217,1.19,0.666,1.641
			c0.896,0.897,2.387,0.897,3.279,0c0.449-0.446,0.668-0.983,0.668-1.641c0-0.652-0.219-1.189-0.668-1.639
			C165.139,86.468,164.604,86.25,163.949,86.25z"/>
	</g>
	<g>
		<path fill="#2C3687" d="M182.695,82.899v-9.76h5.082v18.106h-5.082v-2.389c-1.256,1.773-2.877,2.66-4.863,2.66
			c-1.984,0-3.65-0.624-4.998-1.869c-1.346-1.246-2.02-3.092-2.02-5.537V73.139h5.082v9.863c0,2.782,1.021,4.174,3.062,4.174
			c1.01,0,1.885-0.367,2.625-1.097C182.326,85.354,182.695,84.294,182.695,82.899z"/>
		<path fill="#2C3687" d="M177.832,92.176c-2.146,0-3.977-0.688-5.443-2.044c-1.48-1.37-2.23-3.395-2.23-6.02V72.483h6.395v10.521
			c0,3.152,1.373,3.518,2.408,3.518c0.836,0,1.545-0.297,2.162-0.907c0.617-0.604,0.916-1.49,0.916-2.714V72.484h6.395v19.42h-6.395
			v-1.315C180.857,91.64,179.449,92.176,177.832,92.176z M171.471,73.797v10.315c0,2.244,0.609,3.943,1.811,5.056
			c1.23,1.141,2.721,1.694,4.551,1.694c1.775,0,3.189-0.781,4.328-2.383l1.191-1.68v3.791h3.77V73.796h-3.77v9.104
			c0,1.569-0.438,2.797-1.307,3.648c-0.863,0.852-1.902,1.285-3.086,1.285c-1.695,0-3.719-0.841-3.719-4.83v-9.207L171.471,73.797
			L171.471,73.797z"/>
	</g>
	<g>
		<path fill="#2C3687" d="M197.438,91.247h-5.049V66.274h5.049v12.823l5.619-5.991h6.361l-6.898,7.336l7.168,10.805h-5.988
			l-4.611-6.932l-1.65,1.717V91.247L197.438,91.247z"/>
		<path fill="#2C3687" d="M210.912,91.903h-7.564l-4.354-6.543l-0.9,0.937v5.606h-6.359V65.618h6.359v11.82l4.682-4.988h8.162
			l-7.582,8.064L210.912,91.903z M204.049,90.592h4.416l-6.779-10.217l6.217-6.611h-4.559l-6.562,6.994V66.932h-3.734v23.66h3.734
			v-4.824l2.398-2.496L204.049,90.592z"/>
	</g>
</g>
<g>
	<g>
		<path fill="#5C4E9D" d="M13.704,57.291c2.581,0,4.689-1.021,6.328-3.062l3.365,3.467c-2.671,3.006-5.816,4.512-9.439,4.512
			c-3.625,0-6.608-1.146-8.953-3.435c-2.346-2.289-3.518-5.179-3.518-8.668c0-3.487,1.194-6.399,3.584-8.733
			c2.391-2.332,5.312-3.497,8.768-3.497c3.859,0,7.09,1.467,9.693,4.405l-3.265,3.703c-1.659-2.063-3.724-3.097-6.192-3.097
			c-1.975,0-3.664,0.646-5.064,1.935c-1.402,1.293-2.105,3.029-2.105,5.219c0,2.188,0.662,3.942,1.987,5.267
			C10.215,56.629,11.819,57.291,13.704,57.291z"/>
		<path fill="#5C4E9D" d="M13.957,62.861c-3.784,0-6.95-1.22-9.412-3.62C2.08,56.835,0.83,53.762,0.83,50.104
			c0-3.654,1.271-6.752,3.781-9.202c2.506-2.447,5.609-3.686,9.227-3.686c4.037,0,7.463,1.557,10.184,4.627l0.387,0.436L20.245,47
			l-0.488-0.605c-1.543-1.92-3.403-2.853-5.682-2.853c-1.82,0-3.332,0.576-4.621,1.763c-1.272,1.17-1.893,2.719-1.893,4.733
			c0,2.025,0.588,3.597,1.795,4.804c1.206,1.206,2.629,1.793,4.348,1.793c2.395,0,4.295-0.923,5.815-2.816l0.467-0.579l4.308,4.436
			l-0.404,0.457C21.099,61.269,17.758,62.861,13.957,62.861z M13.838,38.528c-3.261,0-6.057,1.113-8.309,3.312
			c-2.279,2.228-3.387,4.93-3.387,8.264c0,3.29,1.117,6.05,3.318,8.198c2.209,2.153,5.066,3.247,8.496,3.247
			c3.274,0,6.072-1.261,8.538-3.846l-2.435-2.505c-1.692,1.824-3.826,2.747-6.357,2.747c-2.057,0-3.832-0.731-5.277-2.178
			c-1.443-1.445-2.178-3.373-2.178-5.73c0-2.367,0.78-4.284,2.315-5.7c1.521-1.398,3.376-2.108,5.511-2.108
			c2.418,0,4.499,0.927,6.197,2.755l2.376-2.695C20.231,39.76,17.344,38.528,13.838,38.528z"/>
	</g>
	<g>
		<path fill="#5C4E9D" d="M42.043,61.935h-4.746v-2.188c-1.301,1.637-2.912,2.457-4.829,2.457c-1.919,0-3.528-0.557-4.83-1.667
			c-1.302-1.109-1.952-2.592-1.952-4.442s0.672-3.236,2.02-4.156c1.346-0.919,3.186-1.379,5.52-1.379h3.77v-0.102
			c0-1.929-1.021-2.896-3.062-2.896c-0.875,0-1.801,0.174-2.776,0.521c-0.977,0.348-1.802,0.78-2.474,1.297l-2.256-3.267
			c2.379-1.728,5.094-2.592,8.146-2.592c2.198,0,3.992,0.551,5.383,1.649c1.393,1.099,2.088,2.838,2.088,5.216v11.547H42.043z
			 M36.961,55.036v-0.877h-3.164c-2.02,0-3.029,0.63-3.029,1.888c0,0.649,0.242,1.147,0.724,1.497
			c0.482,0.349,1.173,0.521,2.069,0.521c0.899,0,1.689-0.275,2.373-0.824C36.619,56.69,36.961,55.955,36.961,55.036z"/>
		<path fill="#5C4E9D" d="M32.468,62.861c-2.071,0-3.839-0.614-5.257-1.824c-1.447-1.234-2.182-2.896-2.182-4.941
			c0-2.072,0.775-3.652,2.305-4.697c1.453-0.992,3.434-1.494,5.891-1.494h3.068c-0.182-1.19-0.916-1.684-2.361-1.684
			c-0.799,0-1.658,0.164-2.557,0.483c-0.907,0.322-1.68,0.726-2.294,1.197l-0.548,0.42l-3.012-4.358l0.52-0.376
			c2.481-1.805,5.352-2.719,8.531-2.719c2.338,0,4.285,0.603,5.791,1.789c1.55,1.228,2.336,3.154,2.336,5.732v12.201H36.64v-1.229
			C35.442,62.357,34.043,62.861,32.468,62.861z M33.225,51.217c-2.188,0-3.922,0.424-5.15,1.264
			c-1.166,0.798-1.732,1.98-1.732,3.615c0,1.666,0.563,2.957,1.721,3.942c1.191,1.017,2.631,1.512,4.405,1.512
			c1.722,0,3.134-0.726,4.315-2.21l1.17-1.474v3.412h3.434V50.39c0-2.188-0.602-3.723-1.838-4.703
			c-1.267-0.998-2.941-1.506-4.977-1.506c-2.674,0-5.104,0.707-7.234,2.104l1.508,2.183c0.608-0.386,1.307-0.721,2.09-1
			c1.039-0.369,2.047-0.56,2.996-0.56c2.397,0,3.719,1.263,3.719,3.552v0.655l-0.656,0.103H33.225z M33.561,58.72
			c-1.049,0-1.854-0.211-2.453-0.646c-0.65-0.471-0.996-1.172-0.996-2.028c0-1.159,0.64-2.543,3.686-2.543h3.82v1.532
			c0,1.123-0.428,2.037-1.272,2.716C35.545,58.396,34.61,58.72,33.561,58.72z M33.797,54.815c-2.373,0-2.373,0.894-2.373,1.23
			c0,0.442,0.141,0.739,0.451,0.963c0.365,0.267,0.934,0.397,1.686,0.397s1.394-0.223,1.963-0.68
			c0.525-0.422,0.781-0.977,0.781-1.691v-0.221L33.797,54.815L33.797,54.815z"/>
	</g>
	<g>
		<path fill="#5C4E9D" d="M56.01,48.271c-1.502,0-2.625,0.533-3.365,1.598c-0.74,1.066-1.11,2.476-1.11,4.227v7.841h-5.048V43.827
			h5.048v2.39c0.65-0.74,1.465-1.367,2.44-1.883c0.975-0.518,1.969-0.785,2.978-0.81l0.034,4.746H56.01z"/>
		<path fill="#5C4E9D" d="M52.191,62.592h-6.36v-19.42h6.36v1.532c0.448-0.35,0.94-0.668,1.478-0.95
			c1.061-0.562,2.162-0.859,3.27-0.886l0.668-0.014l0.042,6.072h-1.638c-1.286,0-2.211,0.43-2.827,1.315
			c-0.657,0.949-0.992,2.244-0.992,3.852L52.191,62.592L52.191,62.592z M47.143,61.278h3.735v-7.185
			c0-1.878,0.414-3.426,1.229-4.601c0.868-1.247,2.181-1.88,3.903-1.88h0.316l-0.023-3.378c-0.682,0.101-1.357,0.325-2.021,0.677
			c-0.902,0.478-1.662,1.062-2.256,1.736l-1.147,1.31v-3.476h-3.735L47.143,61.278L47.143,61.278z"/>
	</g>
	<g>
		<path fill="#5C4E9D" d="M69.574,61.935h-5.216L58.2,43.827h5.216l3.533,10.938l3.534-10.938h4.882l3.532,10.938l3.533-10.938
			h5.254l-6.162,18.107h-5.249l-3.333-9.862L69.574,61.935z"/>
		<path fill="#5C4E9D" d="M81.993,62.592h-6.191l-2.864-8.478l-2.892,8.478h-6.157l-6.606-19.42h6.611l3.056,9.461l3.058-9.461
			h5.834l3.057,9.461l3.059-9.461h6.645L81.993,62.592z M76.745,61.278h4.309l5.713-16.795h-3.856l-4.013,12.418l-4.012-12.418
			h-3.925l-4.012,12.418l-4.011-12.418h-3.822l5.712,16.795h4.276l3.84-11.246L76.745,61.278z"/>
	</g>
	<g>
		<path fill="#5C4E9D" d="M105.52,61.935h-4.746v-2.188c-1.3,1.637-2.91,2.457-4.83,2.457c-1.918,0-3.526-0.557-4.828-1.667
			c-1.301-1.109-1.951-2.592-1.951-4.442s0.672-3.236,2.018-4.156c1.348-0.919,3.186-1.379,5.521-1.379h3.77v-0.102
			c0-1.929-1.021-2.896-3.064-2.896c-0.875,0-1.801,0.174-2.777,0.521c-0.976,0.347-1.801,0.78-2.473,1.297l-2.254-3.267
			c2.377-1.728,5.091-2.592,8.144-2.592c2.198,0,3.995,0.551,5.386,1.649c1.391,1.098,2.086,2.838,2.086,5.216v11.547H105.52z
			 M100.438,55.036v-0.877h-3.162c-2.021,0-3.029,0.63-3.029,1.888c0,0.649,0.239,1.147,0.721,1.497
			c0.484,0.349,1.173,0.521,2.072,0.521c0.895,0,1.687-0.275,2.373-0.824C100.096,56.69,100.438,55.955,100.438,55.036z"/>
		<path fill="#5C4E9D" d="M95.944,62.861c-2.07,0-3.838-0.614-5.256-1.824c-1.445-1.234-2.18-2.896-2.18-4.941
			c0-2.072,0.773-3.652,2.305-4.697c1.452-0.992,3.434-1.494,5.891-1.494h3.068c-0.182-1.19-0.916-1.684-2.363-1.684
			c-0.799,0-1.657,0.164-2.557,0.483c-0.908,0.322-1.679,0.726-2.293,1.197l-0.549,0.42l-3.011-4.358l0.519-0.376
			c2.482-1.805,5.352-2.719,8.53-2.719c2.341,0,4.287,0.603,5.791,1.789c1.55,1.228,2.337,3.154,2.337,5.732v12.201h-6.059v-1.229
			C98.918,62.357,97.521,62.861,95.944,62.861z M96.704,51.217c-2.188,0-3.921,0.424-5.15,1.264
			c-1.166,0.798-1.732,1.981-1.732,3.615c0,1.666,0.562,2.957,1.72,3.942c1.19,1.017,2.631,1.512,4.403,1.512
			c1.725,0,3.135-0.725,4.317-2.21l1.169-1.474v3.412h3.434V50.39c0-2.188-0.602-3.726-1.838-4.701c-1.266-1-2.94-1.508-4.978-1.508
			c-2.673,0-5.103,0.707-7.233,2.104l1.51,2.183c0.605-0.388,1.307-0.721,2.088-1c1.039-0.369,2.047-0.56,2.996-0.56
			c2.398,0,3.721,1.263,3.721,3.552v0.655l-0.656,0.103H96.704z M97.039,58.72c-1.049,0-1.854-0.211-2.456-0.646
			c-0.648-0.471-0.993-1.173-0.993-2.028c0-1.159,0.639-2.543,3.686-2.543h3.818v1.532c0,1.123-0.428,2.037-1.27,2.716
			C99.022,58.396,98.084,58.72,97.039,58.72z M97.276,54.815c-2.373,0-2.373,0.894-2.373,1.23c0,0.442,0.137,0.739,0.449,0.963
			c0.365,0.266,0.933,0.397,1.688,0.397c0.749,0,1.393-0.223,1.962-0.68c0.526-0.422,0.78-0.977,0.78-1.691v-0.221L97.276,54.815
			L97.276,54.815z"/>
	</g>
	<g>
		<path fill="#5C4E9D" d="M123.594,56.299c0,1.782-0.656,3.214-1.969,4.291c-1.312,1.076-2.979,1.615-4.998,1.615
			c-1.348,0-2.749-0.242-4.208-0.725c-1.459-0.481-2.772-1.194-3.938-2.137l2.224-3.163c1.883,1.459,3.893,2.187,6.022,2.187
			c0.652,0,1.168-0.13,1.549-0.386c0.383-0.258,0.572-0.6,0.572-1.026c0-0.428-0.262-0.82-0.791-1.179
			c-0.525-0.358-1.291-0.697-2.289-1.011c-0.998-0.314-1.762-0.583-2.289-0.808c-0.524-0.226-1.125-0.55-1.799-0.978
			c-1.369-0.852-2.056-2.113-2.056-3.786c0-1.672,0.677-3.034,2.021-4.09c1.349-1.054,3.086-1.581,5.218-1.581
			c2.131,0,4.264,0.719,6.395,2.153l-1.885,3.366c-1.57-1.077-3.135-1.615-4.693-1.615c-1.561,0-2.341,0.426-2.341,1.277
			c0,0.474,0.247,0.844,0.741,1.11c0.494,0.271,1.311,0.584,2.456,0.942s1.961,0.634,2.441,0.827c0.48,0.188,1.061,0.484,1.732,0.89
			C122.967,53.241,123.594,54.514,123.594,56.299z"/>
		<path fill="#5C4E9D" d="M116.627,62.861c-1.41,0-2.895-0.255-4.415-0.757c-1.526-0.506-2.92-1.264-4.145-2.251l-0.477-0.386
			l2.97-4.229l0.542,0.422c1.76,1.359,3.65,2.051,5.624,2.051c0.516,0,0.912-0.093,1.184-0.274c0.248-0.168,0.281-0.332,0.281-0.481
			c0-0.242-0.273-0.479-0.506-0.636c-0.473-0.322-1.182-0.635-2.114-0.928c-1.033-0.324-1.801-0.595-2.352-0.83
			c-0.555-0.238-1.191-0.583-1.891-1.024c-1.564-0.974-2.361-2.435-2.361-4.342c0-1.876,0.766-3.425,2.271-4.605
			c1.459-1.142,3.35-1.722,5.624-1.722c2.252,0,4.527,0.765,6.762,2.267l0.5,0.338l-2.529,4.52l-0.594-0.405
			c-1.451-0.994-2.908-1.5-4.324-1.5c-0.768,0-1.684,0.108-1.684,0.622c0,0.164,0.049,0.345,0.398,0.534
			c0.451,0.247,1.237,0.549,2.338,0.894c1.154,0.359,1.988,0.644,2.488,0.841c0.516,0.204,1.113,0.51,1.828,0.938
			c1.463,0.892,2.201,2.364,2.201,4.386c0,1.979-0.742,3.595-2.207,4.799C120.617,62.267,118.793,62.861,116.627,62.861z
			 M109.378,59.204c0.98,0.709,2.068,1.265,3.248,1.654c3.403,1.124,6.584,0.861,8.581-0.777c1.166-0.954,1.729-2.192,1.729-3.782
			c0-1.552-0.512-2.617-1.566-3.261c-0.639-0.385-1.189-0.668-1.635-0.842c-0.469-0.186-1.275-0.459-2.396-0.811
			c-1.199-0.375-2.041-0.701-2.574-0.993c-0.894-0.485-1.083-1.185-1.083-1.686c0-0.885,0.52-1.936,2.997-1.936
			c1.484,0,2.982,0.451,4.463,1.342l1.242-2.219c-1.844-1.139-3.699-1.715-5.52-1.715c-1.971,0-3.592,0.483-4.813,1.442
			c-1.191,0.932-1.77,2.101-1.77,3.571c0,1.442,0.571,2.499,1.744,3.229c0.645,0.409,1.221,0.721,1.711,0.93
			c0.5,0.214,1.254,0.479,2.229,0.786c1.068,0.335,1.873,0.693,2.459,1.093c0.717,0.486,1.078,1.065,1.078,1.722
			c0,0.647-0.297,1.188-0.861,1.571c-0.49,0.329-1.137,0.497-1.916,0.497c-2.061,0-4.035-0.644-5.871-1.919L109.378,59.204z"/>
	</g>
	<g>
		<path fill="#5C4E9D" d="M132.346,52.176v9.76h-5.051V36.963h5.051v8.885c1.523-1.549,3.234-2.322,5.133-2.322
			c1.896,0,3.494,0.673,4.793,2.021c1.305,1.347,1.953,3.141,1.953,5.385v11.004h-5.047v-9.896c0-2.782-1.02-4.173-3.062-4.173
			c-1.012,0-1.893,0.364-2.643,1.093C132.721,49.69,132.346,50.76,132.346,52.176z"/>
		<path fill="#5C4E9D" d="M144.881,62.592h-6.359V52.041c0-3.152-1.375-3.518-2.406-3.518c-0.84,0-1.557,0.296-2.188,0.908
			c-0.623,0.604-0.926,1.503-0.926,2.743v10.416h-6.363V36.306h6.363v8.096c1.361-1.02,2.861-1.533,4.477-1.533
			c2.07,0,3.844,0.746,5.268,2.22c1.418,1.468,2.137,3.434,2.137,5.842v11.662H144.881z M139.834,61.278h3.734v-10.35
			c0-2.085-0.578-3.697-1.768-4.93c-1.184-1.224-2.598-1.818-4.322-1.818c-1.73,0-3.256,0.695-4.668,2.127l-1.123,1.142v-9.831
			h-3.736v23.66h3.736v-9.104c0-1.592,0.445-2.834,1.328-3.687c0.875-0.85,1.918-1.278,3.1-1.278c1.697,0,3.719,0.838,3.719,4.829
			V61.278z"/>
	</g>
</g>
<g>
	<path fill="#2C3687" d="M8.184,100.669c-0.359,0-0.654,0.074-0.885,0.221c-0.231,0.146-0.346,0.367-0.346,0.665
		c0,0.296,0.115,0.522,0.346,0.68c0.23,0.158,0.722,0.325,1.471,0.509c0.75,0.182,1.316,0.437,1.695,0.764
		c0.38,0.329,0.57,0.811,0.57,1.449c0,0.64-0.24,1.155-0.723,1.555c-0.48,0.397-1.113,0.598-1.894,0.598
		c-1.145,0-2.159-0.396-3.045-1.183l0.774-0.934c0.74,0.644,1.507,0.964,2.301,0.964c0.398,0,0.715-0.087,0.949-0.259
		c0.233-0.17,0.35-0.396,0.35-0.679s-0.11-0.503-0.33-0.659c-0.219-0.157-0.598-0.301-1.137-0.43
		c-0.535-0.129-0.945-0.247-1.222-0.355c-0.28-0.106-0.528-0.25-0.743-0.424c-0.434-0.328-0.65-0.83-0.65-1.508
		c0-0.676,0.246-1.197,0.737-1.564c0.493-0.364,1.101-0.549,1.827-0.549c0.469,0,0.932,0.076,1.393,0.23
		c0.459,0.152,0.857,0.369,1.193,0.647l-0.659,0.934c-0.218-0.196-0.51-0.358-0.88-0.482C8.908,100.731,8.543,100.669,8.184,100.669
		z"/>
	<path fill="#2C3687" d="M14.323,107.022h-1.235v-7.314h1.925l2.209,4.593l2.208-4.593h1.915v7.314h-1.234v-5.715l-2.553,5.076
		h-0.691l-2.543-5.076L14.323,107.022L14.323,107.022z"/>
	<path fill="#2C3687" d="M24.934,105.358l-0.73,1.664h-1.319l3.222-7.314h1.319l3.226,7.314h-1.319l-0.733-1.664H24.934z
		 M28.095,104.217l-1.329-3.015l-1.328,3.015H28.095z"/>
	<path fill="#2C3687" d="M38.028,102.084c0,1.207-0.527,1.965-1.58,2.278l1.914,2.66h-1.568l-1.748-2.461h-1.624v2.461h-1.235
		v-7.314h2.723c1.115,0,1.916,0.187,2.397,0.563C37.787,100.647,38.028,101.254,38.028,102.084z M36.383,103.118
		c0.251-0.217,0.379-0.562,0.379-1.041c0-0.479-0.131-0.807-0.389-0.982c-0.259-0.179-0.719-0.268-1.381-0.268h-1.571v2.615h1.54
		C35.658,103.442,36.133,103.334,36.383,103.118z"/>
	<path fill="#2C3687" d="M42.989,100.837v6.187h-1.235v-6.187h-2.22v-1.129h5.674v1.129H42.989z"/>
	<path fill="#2C3687" d="M52.209,99.708v1.158h-3.904v1.938h3.506v1.098h-3.506v1.958h4.029v1.162H47.07v-7.314H52.209z"/>
	<path fill="#2C3687" d="M60.279,102.084c0,1.207-0.526,1.965-1.581,2.278l1.916,2.66h-1.571l-1.747-2.461h-1.621v2.461h-1.234
		v-7.314h2.72c1.116,0,1.915,0.187,2.396,0.563C60.037,100.647,60.279,101.254,60.279,102.084z M58.635,103.118
		c0.252-0.217,0.377-0.562,0.377-1.041c0-0.479-0.128-0.807-0.387-0.982c-0.258-0.179-0.719-0.268-1.382-0.268h-1.569v2.615h1.538
		C57.911,103.442,58.383,103.334,58.635,103.118z"/>
	<path fill="#2C3687" d="M69.311,105.902c0.424,0,0.791-0.07,1.1-0.215c0.306-0.144,0.628-0.372,0.961-0.686l0.796,0.815
		c-0.774,0.858-1.714,1.288-2.821,1.288c-1.105,0-2.023-0.356-2.752-1.067c-0.729-0.712-1.094-1.611-1.094-2.7
		c0-1.09,0.372-1.995,1.115-2.723c0.744-0.727,1.682-1.088,2.814-1.088c1.135,0,2.081,0.418,2.843,1.254l-0.786,0.859
		c-0.35-0.334-0.679-0.568-0.99-0.7c-0.309-0.134-0.674-0.198-1.091-0.198c-0.74,0-1.362,0.238-1.863,0.718
		c-0.504,0.477-0.754,1.088-0.754,1.829c0,0.743,0.249,1.365,0.748,1.863C68.036,105.653,68.626,105.902,69.311,105.902z"/>
	<path fill="#2C3687" d="M75.234,105.358l-0.732,1.664h-1.319l3.225-7.314h1.318l3.224,7.314h-1.319l-0.732-1.664H75.234z
		 M78.394,104.217l-1.328-3.015l-1.329,3.015H78.394z"/>
	<path fill="#2C3687" d="M88.328,102.084c0,1.207-0.527,1.965-1.58,2.278l1.915,2.66h-1.57l-1.748-2.461h-1.623v2.461h-1.234v-7.314
		h2.721c1.117,0,1.916,0.187,2.398,0.563C88.086,100.647,88.328,101.254,88.328,102.084z M86.684,103.118
		c0.25-0.217,0.377-0.562,0.377-1.041c0-0.479-0.13-0.807-0.389-0.982c-0.258-0.179-0.718-0.268-1.381-0.268h-1.57v2.615h1.54
		C85.957,103.442,86.434,103.334,86.684,103.118z"/>
	<path fill="#2C3687" d="M92.912,104.971l1.633-5.265h1.107l1.633,5.265l1.844-5.265h1.328l-2.554,7.315h-1.226l-1.538-5.014h-0.081
		l-1.54,5.014h-1.225l-2.554-7.315h1.329L92.912,104.971z"/>
	<path fill="#2C3687" d="M102.811,105.358l-0.732,1.664h-1.318l3.224-7.314h1.319l3.223,7.314h-1.318l-0.732-1.664H102.811z
		 M105.971,104.217l-1.328-3.015l-1.33,3.015H105.971z"/>
	<path fill="#2C3687" d="M112.279,100.669c-0.359,0-0.654,0.074-0.886,0.221c-0.229,0.146-0.344,0.367-0.344,0.665
		c0,0.296,0.114,0.522,0.344,0.68c0.229,0.158,0.722,0.325,1.472,0.509c0.75,0.182,1.313,0.437,1.695,0.764
		c0.381,0.329,0.57,0.811,0.57,1.449c0,0.64-0.241,1.155-0.723,1.555c-0.481,0.397-1.113,0.598-1.895,0.598
		c-1.145,0-2.16-0.396-3.047-1.183l0.775-0.934c0.738,0.644,1.508,0.964,2.303,0.964c0.396,0,0.713-0.087,0.945-0.259
		c0.235-0.17,0.352-0.396,0.352-0.679s-0.107-0.503-0.329-0.659c-0.222-0.157-0.599-0.301-1.136-0.43s-0.945-0.247-1.226-0.355
		c-0.278-0.106-0.524-0.25-0.743-0.424c-0.433-0.328-0.648-0.83-0.648-1.508c0-0.676,0.248-1.197,0.738-1.564
		c0.492-0.364,1.102-0.549,1.826-0.549c0.467,0,0.932,0.076,1.393,0.23c0.461,0.152,0.857,0.369,1.191,0.647l-0.658,0.934
		c-0.215-0.196-0.508-0.358-0.879-0.482C113.003,100.731,112.637,100.669,112.279,100.669z"/>
	<path fill="#2C3687" d="M117.182,107.022v-7.314h1.234v3.171h3.631v-3.171h1.234v7.314h-1.234v-2.994h-3.631v2.994H117.182z"/>
	<path fill="#2C3687" d="M134.711,99.708h1.236v7.314h-1.342l-4.143-5.338v5.338h-1.234v-7.314h1.234l4.248,5.462V99.708
		L134.711,99.708z"/>
	<path fill="#2C3687" d="M143.639,99.708v1.158h-3.904v1.938h3.508v1.098h-3.508v1.958h4.031v1.162H138.5v-7.314H143.639z"/>
	<path fill="#2C3687" d="M148.631,100.837v6.187h-1.234v-6.187h-2.219v-1.129h5.672v1.129H148.631z"/>
	<path fill="#2C3687" d="M154.996,104.971l1.633-5.265h1.109l1.633,5.265l1.842-5.265h1.328l-2.553,7.315h-1.227l-1.537-5.014
		h-0.084l-1.539,5.014h-1.225l-2.555-7.315h1.328L154.996,104.971z"/>
	<path fill="#2C3687" d="M170.254,106.011c-0.74,0.724-1.654,1.084-2.742,1.084s-2.002-0.36-2.74-1.084
		c-0.738-0.721-1.109-1.62-1.109-2.699c0-1.078,0.371-1.979,1.109-2.699c0.738-0.723,1.652-1.084,2.74-1.084
		s2.002,0.361,2.742,1.084c0.74,0.722,1.111,1.621,1.111,2.699C171.365,104.391,170.996,105.291,170.254,106.011z M169.35,101.433
		c-0.5-0.516-1.109-0.773-1.838-0.773c-0.725,0-1.338,0.259-1.836,0.773c-0.5,0.517-0.75,1.143-0.75,1.879s0.25,1.362,0.75,1.879
		c0.498,0.517,1.111,0.773,1.836,0.773c0.729,0,1.338-0.259,1.838-0.773c0.498-0.517,0.748-1.143,0.748-1.879
		S169.848,101.949,169.35,101.433z"/>
	<path fill="#2C3687" d="M179.287,102.084c0,1.207-0.525,1.965-1.58,2.278l1.916,2.66h-1.57l-1.748-2.461h-1.623v2.461h-1.232
		v-7.314h2.721c1.115,0,1.914,0.187,2.395,0.563C179.047,100.647,179.287,101.254,179.287,102.084z M177.645,103.118
		c0.25-0.217,0.377-0.562,0.377-1.041c0-0.479-0.131-0.807-0.389-0.982c-0.258-0.179-0.719-0.268-1.381-0.268h-1.57v2.615h1.539
		C176.918,103.442,177.393,103.334,177.645,103.118z"/>
	<path fill="#2C3687" d="M181.59,99.708h1.234v3.566l3.348-3.566h1.57l-2.939,3.201l2.982,4.113h-1.465l-2.43-3.204l-1.066,1.152
		v2.052h-1.234V99.708L181.59,99.708z"/>
	<path fill="#2C3687" d="M189.482,99.708h1.234v7.314h-1.234V99.708z"/>
	<path fill="#2C3687" d="M198.752,99.708h1.236v7.314h-1.342l-4.145-5.338v5.338h-1.234v-7.314h1.234l4.25,5.462V99.708
		L198.752,99.708z"/>
	<path fill="#2C3687" d="M207.607,103.465h1.234v2.5c-0.689,0.763-1.676,1.143-2.961,1.143c-1.082,0-1.986-0.356-2.715-1.066
		c-0.73-0.713-1.096-1.612-1.096-2.701s0.371-1.995,1.115-2.723c0.74-0.727,1.641-1.088,2.693-1.088c1.055,0,1.93,0.308,2.627,0.922
		l-0.658,0.941c-0.287-0.244-0.574-0.414-0.863-0.51c-0.289-0.094-0.627-0.14-1.012-0.14c-0.74,0-1.357,0.238-1.863,0.718
		c-0.5,0.477-0.752,1.104-0.752,1.883c0,0.777,0.244,1.401,0.732,1.873s1.08,0.708,1.773,0.708s1.275-0.151,1.742-0.45v-2.01
		H207.607z"/>
</g>
<g>
	<path fill="#5C4E9D" d="M142.631,33.69c7.781-12.369,21.547-20.613,37.209-20.613s29.428,8.244,37.211,20.613h4.611
		c-8.203-14.649-23.871-24.582-41.822-24.582s-33.619,9.933-41.822,24.582H142.631z"/>
	<path fill="#5C4E9D" d="M150.287,33.69c6.924-8.793,17.652-14.455,29.688-14.455c12.031,0,22.762,5.662,29.686,14.455h3.703
		c-7.375-10.527-19.588-17.428-33.389-17.428c-13.803,0-26.016,6.899-33.393,17.428H150.287z"/>
	<path fill="#5C4E9D" d="M134.83,33.44c8.533-16.32,25.621-27.49,45.277-27.49s36.742,11.17,45.275,27.49H232
		C223.012,13.735,203.141,0,180.105,0c-23.033,0-42.906,13.735-51.895,33.44H134.83z"/>
</g>
<g>
	<path fill="#2C3687" d="M163.299,42.423h0.436c0.705-0.53,1.504-0.946,2.385-1.18c0.107-0.645,0.271-1.268,0.473-1.876h-3.293
		c-0.844,0-1.527,0.685-1.527,1.527C161.771,41.738,162.453,42.423,163.299,42.423z"/>
	<path fill="#2C3687" d="M194.379,41.243c0.881,0.233,1.678,0.649,2.385,1.18h0.574c0.84,0,1.525-0.685,1.525-1.529
		c0-0.843-0.686-1.527-1.525-1.527h-3.428C194.107,39.976,194.271,40.599,194.379,41.243z"/>
	<g>
		<path fill="#2C3687" d="M192.535,57.002v1.876c0,1.782,1.449,3.237,3.236,3.237c1.785,0,3.24-1.455,3.24-3.237v-6.276
			C197.898,55.119,195.432,56.888,192.535,57.002z"/>
	</g>
	<g>
		<path fill="#2C3687" d="M167.664,56.775v1.875c0,1.786-1.453,3.238-3.238,3.238s-3.24-1.452-3.24-3.238v-6.275
			C162.301,54.891,164.768,56.666,167.664,56.775z"/>
	</g>
	<path fill="#2C3687" d="M193.775,41.557c-1.078-6.533-6.736-11.524-13.57-11.524c-6.846,0-12.5,4.988-13.582,11.521
		c-3.264,0.842-5.67,3.792-5.67,7.318c0,4.185,3.385,7.568,7.568,7.568h3.533h10.348h9.453c4.182,0,7.57-3.384,7.57-7.568
		C199.426,45.352,197.023,42.405,193.775,41.557z M169.229,54.393c-1.07,0-1.939-0.87-1.939-1.941s0.869-1.943,1.939-1.943
		c1.072,0,1.939,0.872,1.939,1.943S170.301,54.393,169.229,54.393z M169.174,43.454c0.148-6.169,5.061-11.121,11.102-11.121
		s10.957,4.952,11.105,11.121H169.174z M184.027,54.189h-3.787h-1.16h-2.309c-1.045,0-1.893-0.848-1.893-1.89
		c0-1.046,0.848-1.896,1.893-1.896h2.309h1.16h3.787c1.041,0,1.889,0.851,1.889,1.896C185.916,53.342,185.068,54.189,184.027,54.189
		z M191.707,54.393c-1.074,0-1.945-0.87-1.945-1.941s0.871-1.943,1.945-1.943c1.066,0,1.938,0.872,1.938,1.943
		C193.646,53.522,192.773,54.393,191.707,54.393z"/>
</g>
</svg>
