<?xml version="1.0" encoding="utf-8"?>
<!-- Generator: Adobe Illustrator 15.0.0, SVG Export Plug-In . SVG Version: 6.00 Build 0)  -->
<!DOCTYPE svg PUBLIC "-//W3C//DTD SVG 1.1//EN" "http://www.w3.org/Graphics/SVG/1.1/DTD/svg11.dtd">
<svg version="1.1" id="Layer_1" xmlns="http://www.w3.org/2000/svg" xmlns:xlink="http://www.w3.org/1999/xlink" x="0px" y="0px"
	 width="391.048px" height="123.581px" viewBox="0 0 391.048 123.581" enable-background="new 0 0 391.048 123.581"
	 xml:space="preserve">
<g>
	<g>
		<path fill="#5C4D9C" d="M267.351,39.294c7.782-12.369,21.548-20.613,37.209-20.613c15.663,0,29.429,8.244,37.211,20.613h4.612
			c-8.204-14.649-23.871-24.582-41.823-24.582c-17.95,0-33.618,9.933-41.822,24.582H267.351z"/>
	</g>
	<g>
		<path fill="#5C4D9C" d="M275.008,39.294c6.924-8.793,17.651-14.455,29.687-14.455c12.032,0,22.763,5.662,29.687,14.455h3.703
			c-7.376-10.527-19.589-17.428-33.39-17.428c-13.802,0-26.015,6.899-33.392,17.428H275.008z"/>
	</g>
	<g>
		<path fill="#5C4D9C" d="M259.55,39.294c8.533-16.32,25.621-27.49,45.277-27.49s36.743,11.17,45.276,27.49h6.617
			c-8.988-19.705-28.86-33.44-51.895-33.44c-23.033,0-42.906,13.735-51.896,33.44H259.55z"/>
	</g>
</g>
<g>
	<g>
		<path fill="#2D3488" d="M18.756,21.761h0.438c0.704-0.53,1.503-0.946,2.384-1.18c0.106-0.645,0.271-1.268,0.472-1.876h-3.292
			c-0.845,0-1.527,0.685-1.527,1.527C17.229,21.076,17.912,21.761,18.756,21.761z"/>
	</g>
	<g>
		<path fill="#2D3488" d="M49.837,20.581c0.88,0.233,1.678,0.649,2.384,1.18h0.574c0.84,0,1.525-0.685,1.525-1.529
			c0-0.843-0.686-1.527-1.525-1.527h-3.428C49.566,19.313,49.73,19.937,49.837,20.581z"/>
	</g>
	<g>
		<g>
			<path fill="#2D3488" d="M47.994,36.34v1.876c0,1.782,1.45,3.237,3.235,3.237c1.786,0,3.24-1.455,3.24-3.237v-6.276
				C53.357,34.457,50.889,36.226,47.994,36.34z"/>
		</g>
	</g>
	<g>
		<g>
			<path fill="#2D3488" d="M23.123,36.34v1.875c0,1.786-1.454,3.238-3.238,3.238c-1.786,0-3.24-1.452-3.24-3.238v-6.275
				C17.759,34.455,20.226,36.23,23.123,36.34z"/>
		</g>
	</g>
	<g>
		<path fill="#2D3488" d="M49.234,20.895C48.155,14.361,42.498,9.37,35.664,9.37c-6.847,0-12.5,4.988-13.583,11.521
			c-3.262,0.842-5.67,3.792-5.67,7.318c0,4.185,3.386,7.568,7.568,7.568h3.533h10.349h9.453c4.182,0,7.569-3.384,7.569-7.568
			C54.883,24.689,52.482,21.743,49.234,20.895z M24.687,33.73c-1.071,0-1.939-0.87-1.939-1.941s0.868-1.943,1.939-1.943
			c1.072,0,1.939,0.872,1.939,1.943S25.759,33.73,24.687,33.73z M24.631,22.792c0.149-6.169,5.062-11.121,11.103-11.121
			s10.957,4.952,11.104,11.121H24.631z M39.486,33.527h-3.788h-1.16H32.23c-1.045,0-1.893-0.848-1.893-1.89
			c0-1.046,0.848-1.896,1.893-1.896h2.308h1.16h3.788c1.04,0,1.889,0.851,1.889,1.896C41.374,32.68,40.526,33.527,39.486,33.527z
			 M47.165,33.73c-1.074,0-1.944-0.87-1.944-1.941s0.87-1.943,1.944-1.943c1.066,0,1.938,0.872,1.938,1.943
			C49.104,32.86,48.232,33.73,47.165,33.73z"/>
	</g>
</g>
<g>
	<g>
		<path fill="#2D3488" d="M106.013,79.162C98.23,91.53,84.464,99.774,68.804,99.774c-15.663,0-29.43-8.244-37.212-20.612h-4.611
			c8.203,14.649,23.871,24.582,41.823,24.582c17.949,0,33.617-9.933,41.822-24.582H106.013z"/>
	</g>
	<g>
		<path fill="#2D3488" d="M98.356,79.162c-6.924,8.793-17.653,14.454-29.687,14.454c-12.034,0-22.764-5.661-29.688-14.454H35.28
			c7.377,10.526,19.589,17.428,33.391,17.428c13.801,0,26.015-6.9,33.392-17.428H98.356z"/>
	</g>
	<g>
		<path fill="#2D3488" d="M113.815,79.162c-8.534,16.319-25.622,27.489-45.278,27.489s-36.742-11.17-45.275-27.489h-6.617
			c8.988,19.704,28.859,33.44,51.894,33.44c23.033,0,42.906-13.736,51.896-33.44H113.815z"/>
	</g>
</g>
<g>
	<g>
		<path fill="#2D3488" d="M143.961,79.994c-0.403,0-0.733,0.082-0.991,0.246c-0.258,0.164-0.387,0.413-0.387,0.745
			s0.129,0.586,0.387,0.762c0.258,0.176,0.807,0.365,1.647,0.568c0.84,0.204,1.474,0.489,1.9,0.856
			c0.426,0.368,0.639,0.909,0.639,1.624c0,0.716-0.27,1.297-0.809,1.742s-1.247,0.668-2.123,0.668c-1.282,0-2.42-0.441-3.413-1.325
			l0.868-1.044c0.829,0.72,1.688,1.079,2.58,1.079c0.445,0,0.799-0.096,1.061-0.287c0.262-0.191,0.393-0.446,0.393-0.763
			s-0.123-0.562-0.37-0.738c-0.246-0.176-0.67-0.336-1.272-0.48s-1.059-0.277-1.372-0.399c-0.312-0.121-0.59-0.279-0.833-0.475
			c-0.485-0.368-0.727-0.931-0.727-1.688c0-0.759,0.276-1.344,0.827-1.754c0.551-0.41,1.233-0.615,2.046-0.615
			c0.524,0,1.044,0.086,1.56,0.258c0.516,0.172,0.961,0.414,1.337,0.727l-0.739,1.045c-0.243-0.219-0.571-0.399-0.985-0.54
			S144.364,79.994,143.961,79.994z"/>
	</g>
	<g>
		<path fill="#2D3488" d="M150.698,87.112h-1.384v-8.197h2.158l2.474,5.148l2.475-5.148h2.146v8.197h-1.384v-6.402l-2.861,5.688
			h-0.774l-2.85-5.688V87.112z"/>
	</g>
	<g>
		<path fill="#2D3488" d="M162.448,85.247l-0.821,1.865h-1.478l3.612-8.197h1.478l3.612,8.197h-1.478l-0.821-1.865H162.448z
			 M165.99,83.969l-1.49-3.378l-1.489,3.378H165.99z"/>
	</g>
	<g>
		<path fill="#2D3488" d="M176.979,81.577c0,1.353-0.59,2.205-1.771,2.557l2.146,2.979h-1.759l-1.958-2.756h-1.817v2.756h-1.384
			v-8.197h3.049c1.251,0,2.146,0.211,2.686,0.633C176.709,79.97,176.979,80.647,176.979,81.577z M175.138,82.738
			c0.281-0.243,0.422-0.632,0.422-1.167s-0.145-0.902-0.434-1.103c-0.29-0.199-0.806-0.299-1.548-0.299h-1.759v2.932h1.724
			C174.324,83.101,174.856,82.98,175.138,82.738z"/>
	</g>
	<g>
		<path fill="#2D3488" d="M182.396,80.181v6.931h-1.384v-6.931h-2.486v-1.267h6.356v1.267H182.396z"/>
	</g>
	<g>
		<path fill="#2D3488" d="M192.586,78.915v1.302h-4.374v2.169h3.928v1.232h-3.928v2.192h4.514v1.302h-5.898v-8.197H192.586z"/>
	</g>
	<g>
		<path fill="#2D3488" d="M201.488,81.577c0,1.353-0.591,2.205-1.771,2.557l2.146,2.979h-1.76l-1.959-2.756h-1.816v2.756h-1.385
			v-8.197h3.049c1.252,0,2.146,0.211,2.686,0.633C201.218,79.97,201.488,80.647,201.488,81.577z M199.647,82.738
			c0.281-0.243,0.422-0.632,0.422-1.167s-0.145-0.902-0.434-1.103c-0.289-0.199-0.806-0.299-1.549-0.299h-1.758v2.932h1.723
			C198.833,83.101,199.366,82.98,199.647,82.738z"/>
	</g>
	<g>
		<path fill="#2D3488" d="M211.327,85.857c0.477,0,0.887-0.08,1.231-0.24c0.344-0.16,0.704-0.417,1.079-0.769l0.891,0.915
			c-0.867,0.962-1.921,1.442-3.16,1.442s-2.268-0.398-3.084-1.196c-0.817-0.798-1.226-1.806-1.226-3.025s0.417-2.235,1.249-3.05
			c0.832-0.812,1.884-1.219,3.154-1.219s2.332,0.469,3.184,1.407l-0.879,0.962c-0.391-0.375-0.761-0.638-1.108-0.786
			c-0.349-0.148-0.757-0.223-1.226-0.223c-0.828,0-1.524,0.268-2.088,0.804c-0.562,0.535-0.844,1.219-0.844,2.052
			s0.279,1.528,0.838,2.087C209.898,85.578,210.561,85.857,211.327,85.857z"/>
	</g>
	<g>
		<path fill="#2D3488" d="M217.823,85.247l-0.82,1.865h-1.478l3.612-8.197h1.477l3.613,8.197h-1.479l-0.82-1.865H217.823z
			 M221.366,83.969l-1.49-3.378l-1.489,3.378H221.366z"/>
	</g>
	<g>
		<path fill="#2D3488" d="M232.354,81.577c0,1.353-0.591,2.205-1.771,2.557l2.146,2.979h-1.76l-1.958-2.756h-1.817v2.756h-1.384
			v-8.197h3.049c1.251,0,2.146,0.211,2.686,0.633C232.084,79.97,232.354,80.647,232.354,81.577z M230.512,82.738
			c0.281-0.243,0.422-0.632,0.422-1.167s-0.145-0.902-0.434-1.103c-0.289-0.199-0.805-0.299-1.548-0.299h-1.759v2.932h1.724
			C229.7,83.101,230.231,82.98,230.512,82.738z"/>
	</g>
	<g>
		<path fill="#2D3488" d="M241.008,84.813l1.829-5.898h1.243l1.83,5.898l2.063-5.898h1.489l-2.861,8.197h-1.372l-1.724-5.617h-0.094
			l-1.725,5.617h-1.372l-2.861-8.197h1.489L241.008,84.813z"/>
	</g>
	<g>
		<path fill="#2D3488" d="M251.961,85.247l-0.821,1.865h-1.478l3.611-8.197h1.479l3.611,8.197h-1.477l-0.822-1.865H251.961z
			 M255.502,83.969l-1.489-3.378l-1.489,3.378H255.502z"/>
	</g>
	<g>
		<path fill="#2D3488" d="M262.427,79.994c-0.403,0-0.733,0.082-0.991,0.246s-0.387,0.413-0.387,0.745s0.129,0.586,0.387,0.762
			s0.808,0.365,1.648,0.568c0.84,0.204,1.473,0.489,1.899,0.856c0.427,0.368,0.64,0.909,0.64,1.624c0,0.716-0.27,1.297-0.81,1.742
			s-1.247,0.668-2.122,0.668c-1.283,0-2.42-0.441-3.413-1.325l0.868-1.044c0.828,0.72,1.688,1.079,2.58,1.079
			c0.445,0,0.799-0.096,1.061-0.287s0.393-0.446,0.393-0.763s-0.123-0.562-0.369-0.738s-0.67-0.336-1.272-0.48
			s-1.06-0.277-1.372-0.399c-0.312-0.121-0.59-0.279-0.832-0.475c-0.485-0.368-0.728-0.931-0.728-1.688
			c0-0.759,0.276-1.344,0.827-1.754s1.232-0.615,2.046-0.615c0.524,0,1.044,0.086,1.56,0.258s0.962,0.414,1.338,0.727l-0.739,1.045
			c-0.243-0.219-0.571-0.399-0.985-0.54S262.831,79.994,262.427,79.994z"/>
	</g>
	<g>
		<path fill="#2D3488" d="M267.781,87.112v-8.197h1.384v3.553h4.069v-3.553h1.384v8.197h-1.384v-3.354h-4.069v3.354H267.781z"/>
	</g>
	<g>
		<path fill="#2D3488" d="M287.142,78.915h1.384v8.197h-1.501l-4.644-5.98v5.98h-1.385v-8.197h1.385l4.761,6.121V78.915z"/>
	</g>
	<g>
		<path fill="#2D3488" d="M297.004,78.915v1.302h-4.374v2.169h3.929v1.232h-3.929v2.192h4.515v1.302h-5.898v-8.197H297.004z"/>
	</g>
	<g>
		<path fill="#2D3488" d="M302.458,80.181v6.931h-1.384v-6.931h-2.485v-1.267h6.355v1.267H302.458z"/>
	</g>
	<g>
		<path fill="#2D3488" d="M309.446,84.813l1.83-5.898h1.243l1.829,5.898l2.064-5.898h1.489l-2.861,8.197h-1.372l-1.725-5.617h-0.094
			l-1.724,5.617h-1.372l-2.861-8.197h1.489L309.446,84.813z"/>
	</g>
	<g>
		<path fill="#2D3488" d="M326.405,85.98c-0.83,0.81-1.854,1.214-3.073,1.214s-2.243-0.404-3.072-1.214s-1.243-1.817-1.243-3.025
			s0.414-2.216,1.243-3.026c0.829-0.809,1.853-1.213,3.072-1.213s2.243,0.404,3.073,1.213c0.828,0.811,1.242,1.818,1.242,3.026
			S327.233,85.17,326.405,85.98z M325.389,80.85c-0.559-0.579-1.244-0.868-2.058-0.868s-1.499,0.289-2.058,0.868
			c-0.56,0.578-0.839,1.279-0.839,2.104s0.279,1.526,0.839,2.104c0.559,0.579,1.244,0.868,2.058,0.868s1.499-0.289,2.058-0.868
			c0.56-0.578,0.839-1.279,0.839-2.104S325.949,81.428,325.389,80.85z"/>
	</g>
	<g>
		<path fill="#2D3488" d="M336.383,81.577c0,1.353-0.59,2.205-1.77,2.557l2.146,2.979H335l-1.959-2.756h-1.817v2.756h-1.384v-8.197
			h3.049c1.251,0,2.146,0.211,2.686,0.633C336.114,79.97,336.383,80.647,336.383,81.577z M334.543,82.738
			c0.281-0.243,0.422-0.632,0.422-1.167s-0.145-0.902-0.434-1.103c-0.29-0.199-0.807-0.299-1.549-0.299h-1.759v2.932h1.724
			C333.729,83.101,334.261,82.98,334.543,82.738z"/>
	</g>
	<g>
		<path fill="#2D3488" d="M338.823,78.915h1.385v3.999l3.752-3.999h1.76l-3.296,3.588l3.343,4.609h-1.643l-2.721-3.588l-1.195,1.289
			v2.299h-1.385V78.915z"/>
	</g>
	<g>
		<path fill="#2D3488" d="M347.525,78.915h1.384v8.197h-1.384V78.915z"/>
	</g>
	<g>
		<path fill="#2D3488" d="M357.774,78.915h1.385v8.197h-1.502l-4.644-5.98v5.98h-1.384v-8.197h1.384l4.761,6.121V78.915z"/>
	</g>
	<g>
		<path fill="#2D3488" d="M367.555,83.125h1.383v2.803c-0.773,0.853-1.88,1.278-3.318,1.278c-1.212,0-2.227-0.398-3.043-1.196
			c-0.817-0.798-1.226-1.806-1.226-3.025s0.417-2.235,1.249-3.05c0.832-0.812,1.839-1.219,3.02-1.219s2.162,0.344,2.943,1.031
			l-0.738,1.057c-0.32-0.274-0.644-0.464-0.968-0.569c-0.325-0.105-0.702-0.158-1.132-0.158c-0.828,0-1.524,0.268-2.088,0.804
			c-0.562,0.535-0.844,1.238-0.844,2.11s0.273,1.571,0.82,2.099c0.548,0.528,1.211,0.792,1.988,0.792s1.429-0.168,1.953-0.505
			V83.125z"/>
	</g>
</g>
<g>
	<g>
		<path fill="#5C4D9C" d="M28.882,66.859c2.537,0,4.612-1.004,6.223-3.013l3.31,3.409c-2.626,2.958-5.721,4.436-9.285,4.436
			s-6.499-1.125-8.804-3.376c-2.306-2.251-3.459-5.092-3.459-8.523c0-3.431,1.175-6.294,3.525-8.589
			c2.35-2.295,5.224-3.442,8.623-3.442c3.795,0,6.973,1.445,9.533,4.336l-3.21,3.641c-1.633-2.03-3.663-3.045-6.09-3.045
			c-1.942,0-3.603,0.634-4.981,1.903c-1.379,1.27-2.069,2.979-2.069,5.13s0.65,3.879,1.953,5.181
			C25.451,66.208,27.029,66.859,28.882,66.859z"/>
		<path fill="#5C4D9C" d="M29.13,72.066c-3.649,0-6.699-1.172-9.066-3.482c-2.371-2.313-3.572-5.271-3.572-8.792
			c0-3.52,1.224-6.5,3.638-8.857c2.412-2.355,5.401-3.549,8.885-3.549c3.889,0,7.191,1.501,9.813,4.462l0.22,0.248l-3.724,4.224
			l-0.279-0.347c-1.573-1.955-3.47-2.905-5.798-2.905c-1.836,0-3.427,0.607-4.728,1.804c-1.311,1.207-1.948,2.794-1.948,4.854
			c0,2.039,0.62,3.693,1.843,4.915c1.223,1.224,2.727,1.844,4.468,1.844c2.44,0,4.38-0.939,5.93-2.872l0.266-0.332l3.849,3.964
			l-0.231,0.261C36.008,70.531,32.79,72.066,29.13,72.066z M29.015,48.135c-3.281,0-6.094,1.122-8.36,3.335
			c-2.264,2.211-3.412,5.011-3.412,8.321c0,3.311,1.125,6.088,3.346,8.255c2.222,2.17,5.096,3.27,8.542,3.27
			c3.332,0,6.28-1.363,8.771-4.052l-2.775-2.858c-1.64,1.877-3.738,2.828-6.243,2.828c-1.948,0-3.63-0.694-4.999-2.062
			s-2.062-3.201-2.062-5.446c0-2.25,0.737-4.069,2.19-5.406c1.443-1.329,3.205-2.002,5.235-2.002c2.395,0,4.444,0.957,6.097,2.845
			l2.701-3.063C35.607,49.468,32.571,48.135,29.015,48.135z"/>
	</g>
	<g>
		<path fill="#5C4D9C" d="M56.917,71.426H52.25v-2.151c-1.28,1.611-2.863,2.416-4.75,2.416s-3.471-0.546-4.75-1.639
			c-1.28-1.092-1.92-2.548-1.92-4.369c0-1.82,0.662-3.183,1.986-4.088c1.324-0.904,3.133-1.356,5.429-1.356h3.707v-0.1
			c0-1.897-1.004-2.847-3.012-2.847c-0.86,0-1.771,0.171-2.73,0.513c-0.96,0.343-1.771,0.768-2.433,1.274l-2.218-3.21
			c2.339-1.699,5.009-2.548,8.01-2.548c2.163,0,3.928,0.541,5.296,1.622c1.368,1.082,2.052,2.792,2.052,5.13V71.426z M51.919,64.641
			V63.78h-3.111c-1.986,0-2.979,0.618-2.979,1.854c0,0.641,0.237,1.132,0.712,1.474c0.474,0.342,1.153,0.513,2.036,0.513
			c0.882,0,1.66-0.27,2.333-0.811C51.583,66.268,51.919,65.545,51.919,64.641z"/>
		<path fill="#5C4D9C" d="M47.501,72.066c-1.971,0-3.651-0.582-4.994-1.729c-1.361-1.161-2.051-2.727-2.051-4.654
			c0-1.942,0.723-3.422,2.149-4.397c1.382-0.943,3.28-1.422,5.641-1.422h3.324c-0.089-1.497-0.931-2.196-2.629-2.196
			c-0.813,0-1.69,0.165-2.604,0.491c-0.918,0.328-1.703,0.738-2.331,1.219l-0.313,0.239l-2.649-3.836l0.296-0.215
			c2.394-1.739,5.163-2.62,8.23-2.62c2.239,0,4.099,0.573,5.529,1.702c1.456,1.152,2.194,2.977,2.194,5.425v11.729h-5.417v-1.548
			C50.649,71.457,49.182,72.066,47.501,72.066z M48.246,60.614c-2.208,0-3.963,0.435-5.217,1.291
			c-1.226,0.839-1.822,2.074-1.822,3.778c0,1.722,0.585,3.058,1.788,4.084c1.204,1.027,2.72,1.549,4.507,1.549
			c1.783,0,3.24-0.744,4.456-2.274l0.668-0.842v2.852h3.917V60.073c0-2.207-0.643-3.834-1.909-4.836
			c-1.294-1.022-2.998-1.541-5.064-1.541c-2.779,0-5.297,0.762-7.491,2.266l1.789,2.59c0.628-0.429,1.372-0.798,2.216-1.099
			c0.996-0.355,1.957-0.535,2.856-0.535c2.216,0,3.387,1.114,3.387,3.222v0.475H48.246z M48.577,67.995
			c-0.959,0-1.718-0.196-2.255-0.583c-0.576-0.415-0.868-1.013-0.868-1.778c0-1.017,0.582-2.229,3.354-2.229h3.486v1.236
			c0,1.02-0.387,1.847-1.149,2.46C50.407,67.694,49.543,67.995,48.577,67.995z M48.808,64.155c-2.604,0-2.604,1.113-2.604,1.479
			c0,0.518,0.182,0.9,0.556,1.169c0.407,0.294,1.018,0.442,1.816,0.442c0.803,0,1.489-0.238,2.099-0.728
			c0.585-0.471,0.869-1.084,0.869-1.876v-0.486H48.808z"/>
	</g>
	<g>
		<path fill="#5C4D9C" d="M70.82,57.988c-1.479,0-2.582,0.524-3.31,1.572c-0.728,1.048-1.092,2.433-1.092,4.154v7.712h-4.965V53.619
			h4.965v2.35c0.64-0.729,1.44-1.346,2.4-1.854c0.96-0.507,1.937-0.772,2.929-0.794l0.033,4.667H70.82z"/>
		<path fill="#5C4D9C" d="M66.792,71.801h-5.715V53.244h5.715v1.815c0.537-0.481,1.156-0.909,1.85-1.276
			c1.007-0.532,2.049-0.814,3.096-0.837l0.38-0.008l0.039,5.425H70.82c-1.36,0-2.342,0.461-3.002,1.411
			c-0.681,0.979-1.025,2.305-1.025,3.94V71.801z M61.828,71.051h4.215v-7.337c0-1.791,0.39-3.261,1.159-4.368
			c0.8-1.15,2.017-1.733,3.618-1.733h0.583l-0.028-3.896c-0.802,0.072-1.602,0.317-2.382,0.729c-0.916,0.485-1.688,1.081-2.293,1.77
			l-0.657,0.748v-2.97h-4.215V71.051z"/>
	</g>
	<g>
		<path fill="#5C4D9C" d="M84.325,71.426h-5.13l-6.058-17.808h5.131l3.475,10.757l3.476-10.757h4.8l3.475,10.757l3.476-10.757h5.164
			l-6.057,17.808h-5.164l-3.277-9.698L84.325,71.426z"/>
		<path fill="#5C4D9C" d="M96.344,71.801h-5.701l-3.01-8.907l-3.04,8.907h-5.667l-6.312-18.558h5.927l3.202,9.912l3.203-9.912h5.346
			l3.202,9.912l3.203-9.912h5.96L96.344,71.801z M91.181,71.051h4.626l5.802-17.058h-4.367l-3.749,11.602l-3.748-11.602h-4.254
			l-3.749,11.602l-3.748-11.602H73.66l5.803,17.058h4.594l3.58-10.489L91.181,71.051z"/>
	</g>
	<g>
		<path fill="#5C4D9C" d="M119.84,71.426h-4.667v-2.151c-1.28,1.611-2.863,2.416-4.75,2.416s-3.471-0.546-4.75-1.639
			c-1.28-1.092-1.92-2.548-1.92-4.369c0-1.82,0.662-3.183,1.986-4.088c1.324-0.904,3.133-1.356,5.429-1.356h3.707v-0.1
			c0-1.897-1.004-2.847-3.012-2.847c-0.86,0-1.771,0.171-2.73,0.513c-0.96,0.343-1.771,0.768-2.433,1.274l-2.218-3.21
			c2.339-1.699,5.009-2.548,8.01-2.548c2.163,0,3.928,0.541,5.296,1.622c1.368,1.082,2.052,2.792,2.052,5.13V71.426z
			 M114.842,64.641V63.78h-3.111c-1.986,0-2.979,0.618-2.979,1.854c0,0.641,0.237,1.132,0.712,1.474
			c0.474,0.342,1.153,0.513,2.036,0.513c0.882,0,1.66-0.27,2.333-0.811C114.506,66.268,114.842,65.545,114.842,64.641z"/>
		<path fill="#5C4D9C" d="M110.424,72.066c-1.971,0-3.651-0.582-4.994-1.729c-1.361-1.161-2.051-2.727-2.051-4.654
			c0-1.942,0.723-3.422,2.149-4.397c1.382-0.943,3.28-1.422,5.641-1.422h3.324c-0.089-1.497-0.931-2.196-2.629-2.196
			c-0.813,0-1.69,0.165-2.604,0.491c-0.918,0.328-1.703,0.738-2.331,1.219l-0.313,0.239l-2.649-3.836l0.296-0.215
			c2.394-1.739,5.163-2.62,8.23-2.62c2.239,0,4.099,0.573,5.529,1.702c1.456,1.152,2.194,2.977,2.194,5.425v11.729h-5.417v-1.548
			C113.572,71.457,112.104,72.066,110.424,72.066z M111.168,60.614c-2.208,0-3.963,0.435-5.217,1.291
			c-1.226,0.839-1.822,2.074-1.822,3.778c0,1.722,0.585,3.058,1.788,4.084c1.204,1.027,2.72,1.549,4.507,1.549
			c1.783,0,3.24-0.744,4.456-2.274l0.668-0.842v2.852h3.917V60.073c0-2.207-0.643-3.834-1.909-4.836
			c-1.294-1.022-2.998-1.541-5.064-1.541c-2.779,0-5.297,0.762-7.491,2.266l1.789,2.59c0.628-0.429,1.372-0.798,2.216-1.099
			c0.996-0.355,1.957-0.535,2.856-0.535c2.216,0,3.387,1.114,3.387,3.222v0.475H111.168z M111.5,67.995
			c-0.959,0-1.718-0.196-2.255-0.583c-0.576-0.415-0.868-1.013-0.868-1.778c0-1.017,0.582-2.229,3.354-2.229h3.486v1.236
			c0,1.02-0.387,1.847-1.149,2.46C113.33,67.694,112.466,67.995,111.5,67.995z M111.731,64.155c-2.604,0-2.604,1.113-2.604,1.479
			c0,0.518,0.182,0.9,0.556,1.169c0.407,0.294,1.018,0.442,1.816,0.442c0.803,0,1.489-0.238,2.099-0.728
			c0.585-0.471,0.869-1.084,0.869-1.876v-0.486H111.731z"/>
	</g>
	<g>
		<path fill="#5C4D9C" d="M137.78,65.882c0,1.754-0.645,3.161-1.936,4.22c-1.291,1.06-2.929,1.589-4.916,1.589
			c-1.324,0-2.703-0.237-4.137-0.712c-1.435-0.474-2.726-1.175-3.873-2.102l2.185-3.111c1.854,1.435,3.829,2.151,5.925,2.151
			c0.64,0,1.147-0.127,1.522-0.381c0.375-0.253,0.562-0.59,0.562-1.009s-0.259-0.806-0.778-1.159
			c-0.519-0.353-1.269-0.684-2.25-0.993c-0.982-0.309-1.733-0.573-2.251-0.794c-0.519-0.221-1.109-0.54-1.771-0.96
			c-1.346-0.838-2.019-2.079-2.019-3.724c0-1.644,0.662-2.984,1.986-4.021c1.324-1.037,3.034-1.556,5.131-1.556
			c2.096,0,4.192,0.706,6.289,2.118l-1.854,3.31c-1.544-1.059-3.084-1.588-4.617-1.588c-1.534,0-2.3,0.419-2.3,1.258
			c0,0.463,0.242,0.827,0.728,1.092c0.485,0.265,1.291,0.574,2.416,0.927c1.125,0.354,1.925,0.624,2.4,0.811
			c0.474,0.188,1.043,0.48,1.705,0.878C137.163,62.875,137.78,64.127,137.78,65.882z"/>
		<path fill="#5C4D9C" d="M130.929,72.066c-1.358,0-2.79-0.246-4.255-0.73c-1.469-0.485-2.812-1.214-3.991-2.166l-0.272-0.221
			l2.612-3.72l0.311,0.24c1.778,1.376,3.694,2.073,5.696,2.073c0.56,0,1.002-0.106,1.312-0.316c0.271-0.184,0.397-0.405,0.397-0.698
			c0-0.286-0.207-0.571-0.614-0.85c-0.485-0.33-1.209-0.647-2.152-0.945c-0.99-0.311-1.759-0.582-2.285-0.807
			c-0.538-0.229-1.152-0.562-1.825-0.988c-1.455-0.905-2.193-2.265-2.193-4.04c0-1.757,0.716-3.209,2.129-4.317
			c1.386-1.085,3.19-1.635,5.362-1.635c2.162,0,4.349,0.734,6.499,2.182l0.287,0.193l-2.224,3.969l-0.338-0.232
			c-1.474-1.01-2.956-1.522-4.405-1.522c-1.925,0-1.925,0.665-1.925,0.883c0,0.203,0.055,0.502,0.532,0.763
			c0.463,0.252,1.253,0.555,2.349,0.897c1.124,0.354,1.939,0.629,2.425,0.82c0.497,0.197,1.089,0.502,1.76,0.905
			c1.352,0.819,2.036,2.191,2.036,4.078c0,1.864-0.698,3.382-2.073,4.51C134.729,71.502,132.995,72.066,130.929,72.066z
			 M123.43,68.801c1.041,0.791,2.209,1.402,3.479,1.821c1.39,0.46,2.742,0.693,4.02,0.693c1.888,0,3.462-0.506,4.678-1.504
			c1.21-0.992,1.799-2.278,1.799-3.93c0-1.629-0.547-2.753-1.673-3.437c-0.635-0.381-1.19-0.668-1.649-0.85
			c-0.467-0.184-1.267-0.454-2.374-0.801c-1.158-0.363-1.97-0.676-2.483-0.956c-0.763-0.416-0.923-1.002-0.923-1.421
			c0-0.745,0.464-1.633,2.675-1.633c1.489,0,2.998,0.48,4.487,1.428l1.486-2.653c-1.929-1.238-3.876-1.865-5.791-1.865
			c-2,0-3.649,0.497-4.899,1.476c-1.24,0.971-1.842,2.19-1.842,3.726c0,1.521,0.603,2.634,1.842,3.405
			c0.641,0.407,1.219,0.721,1.72,0.934c0.504,0.215,1.25,0.478,2.216,0.781c1.013,0.319,1.803,0.669,2.349,1.04
			c0.625,0.427,0.942,0.921,0.942,1.47c0,0.542-0.251,0.999-0.728,1.319c-0.437,0.296-1.019,0.445-1.732,0.445
			c-2.054,0-4.017-0.671-5.841-1.994L123.43,68.801z"/>
	</g>
	<g>
		<path fill="#5C4D9C" d="M146.552,61.828v9.599h-4.965v-24.56h4.965v8.738c1.5-1.522,3.183-2.284,5.048-2.284
			s3.437,0.662,4.717,1.986c1.279,1.324,1.92,3.089,1.92,5.296v10.823h-4.965v-9.731c0-2.736-1.004-4.104-3.012-4.104
			c-0.993,0-1.859,0.359-2.599,1.076S146.552,60.437,146.552,61.828z"/>
		<path fill="#5C4D9C" d="M158.611,71.801h-5.715V61.695c0-2.51-0.862-3.729-2.637-3.729c-0.899,0-1.664,0.317-2.337,0.97
			c-0.66,0.64-0.995,1.614-0.995,2.892v9.974h-5.715v-25.31h5.715v8.253c1.407-1.194,2.976-1.798,4.673-1.798
			c1.961,0,3.639,0.707,4.986,2.1c1.344,1.391,2.025,3.26,2.025,5.557V71.801z M153.646,71.051h4.215V60.603
			c0-2.096-0.61-3.79-1.814-5.036c-1.218-1.259-2.672-1.872-4.447-1.872c-1.752,0-3.36,0.731-4.781,2.172l-0.642,0.651v-9.278
			h-4.215v23.81h4.215v-9.224c0-1.489,0.412-2.644,1.223-3.43c0.809-0.785,1.771-1.182,2.86-1.182c1.545,0,3.387,0.777,3.387,4.479
			V71.051z"/>
	</g>
	<g>
		<path fill="#2D3488" d="M173.031,52.758v18.668h-5.164V52.758h-6.554V48.29h18.271v4.468H173.031z"/>
		<path fill="#2D3488" d="M173.406,71.801h-5.914V53.133h-6.554v-5.218h19.021v5.218h-6.554V71.801z M168.243,71.051h4.414V52.383
			h6.554v-3.718h-17.521v3.718h6.554V71.051z"/>
	</g>
	<g>
		<path fill="#2D3488" d="M192.229,57.988c-1.479,0-2.582,0.524-3.31,1.572c-0.728,1.048-1.092,2.433-1.092,4.154v7.712h-4.965
			V53.619h4.965v2.35c0.64-0.729,1.44-1.346,2.4-1.854c0.96-0.507,1.936-0.772,2.929-0.794l0.033,4.667H192.229z"/>
		<path fill="#2D3488" d="M188.202,71.801h-5.715V53.244h5.715v1.815c0.537-0.481,1.156-0.909,1.85-1.276
			c1.007-0.532,2.049-0.814,3.097-0.837l0.38-0.008l0.039,5.425h-1.338c-1.36,0-2.342,0.461-3.002,1.411
			c-0.681,0.979-1.025,2.305-1.025,3.94V71.801z M183.237,71.051h4.215v-7.337c0-1.791,0.39-3.261,1.159-4.368
			c0.8-1.15,2.017-1.733,3.618-1.733h0.582l-0.027-3.896c-0.803,0.072-1.602,0.317-2.382,0.729c-0.916,0.485-1.688,1.081-2.293,1.77
			l-0.657,0.748v-2.97h-4.215V71.051z"/>
	</g>
	<g>
		<path fill="#2D3488" d="M211.426,71.426h-4.666v-2.151c-1.281,1.611-2.863,2.416-4.75,2.416s-3.471-0.546-4.75-1.639
			c-1.279-1.092-1.92-2.548-1.92-4.369c0-1.82,0.662-3.183,1.986-4.088c1.324-0.904,3.133-1.356,5.428-1.356h3.707v-0.1
			c0-1.897-1.004-2.847-3.012-2.847c-0.861,0-1.771,0.171-2.73,0.513c-0.961,0.343-1.771,0.768-2.434,1.274l-2.217-3.21
			c2.338-1.699,5.008-2.548,8.01-2.548c2.162,0,3.928,0.541,5.297,1.622c1.367,1.082,2.051,2.792,2.051,5.13V71.426z
			 M206.428,64.641V63.78h-3.111c-1.986,0-2.979,0.618-2.979,1.854c0,0.641,0.236,1.132,0.711,1.474s1.154,0.513,2.037,0.513
			c0.881,0,1.66-0.27,2.332-0.811C206.092,66.268,206.428,65.545,206.428,64.641z"/>
		<path fill="#2D3488" d="M202.01,72.066c-1.971,0-3.65-0.582-4.993-1.729c-1.361-1.162-2.052-2.728-2.052-4.654
			c0-1.942,0.724-3.422,2.149-4.397c1.382-0.943,3.279-1.422,5.64-1.422h3.324c-0.089-1.497-0.931-2.196-2.629-2.196
			c-0.814,0-1.69,0.165-2.604,0.491c-0.919,0.328-1.703,0.738-2.332,1.219l-0.312,0.239l-2.648-3.836l0.296-0.215
			c2.393-1.739,5.162-2.62,8.23-2.62c2.238,0,4.099,0.573,5.529,1.702c1.455,1.151,2.193,2.977,2.193,5.425v11.729h-5.416v-1.548
			C205.158,71.457,203.691,72.066,202.01,72.066z M202.754,60.614c-2.207,0-3.962,0.435-5.216,1.291
			c-1.227,0.839-1.823,2.074-1.823,3.778c0,1.721,0.585,3.057,1.788,4.084s2.72,1.549,4.507,1.549c1.782,0,3.239-0.744,4.456-2.274
			l0.669-0.841v2.851h3.916V60.073c0-2.208-0.642-3.834-1.908-4.836c-1.295-1.022-2.999-1.541-5.064-1.541
			c-2.779,0-5.298,0.762-7.49,2.266l1.788,2.59c0.629-0.429,1.372-0.798,2.217-1.099c0.995-0.355,1.956-0.535,2.856-0.535
			c2.216,0,3.387,1.114,3.387,3.222v0.475H202.754z M203.086,67.995c-0.96,0-1.719-0.196-2.256-0.583
			c-0.575-0.415-0.867-1.013-0.867-1.778c0-1.017,0.582-2.229,3.354-2.229h3.486v1.236c0,1.02-0.387,1.848-1.15,2.46
			C204.917,67.694,204.053,67.995,203.086,67.995z M203.317,64.155c-2.604,0-2.604,1.113-2.604,1.479c0,0.518,0.182,0.9,0.555,1.169
			c0.407,0.294,1.02,0.442,1.818,0.442c0.792,0,1.497-0.245,2.097-0.728c0.586-0.47,0.87-1.084,0.87-1.876v-0.486H203.317z"/>
	</g>
	<g>
		<path fill="#2D3488" d="M223.095,71.691c-2.107,0-3.989-0.894-5.644-2.681c-1.655-1.788-2.482-4.006-2.482-6.653
			c0-2.648,0.805-4.816,2.416-6.504c1.61-1.688,3.497-2.532,5.66-2.532c2.162,0,3.928,0.761,5.296,2.284v-8.738h4.965v24.56h-4.965
			v-2.351C226.951,70.82,225.202,71.691,223.095,71.691z M219.967,62.555c0,1.435,0.43,2.61,1.291,3.525
			c0.86,0.916,1.864,1.374,3.012,1.374s2.124-0.458,2.93-1.374c0.805-0.915,1.208-2.096,1.208-3.542
			c0-1.444-0.403-2.647-1.208-3.607c-0.806-0.96-1.793-1.44-2.963-1.44s-2.174,0.486-3.012,1.457
			C220.386,59.918,219.967,61.122,219.967,62.555z"/>
		<path fill="#2D3488" d="M223.095,72.066c-2.207,0-4.198-0.942-5.919-2.801c-1.713-1.851-2.582-4.175-2.582-6.908
			c0-2.736,0.848-5.012,2.52-6.763c1.677-1.757,3.672-2.648,5.932-2.648c1.935,0,3.585,0.592,4.921,1.761v-8.216h5.715v25.31h-5.715
			v-1.745C226.622,71.391,224.987,72.066,223.095,72.066z M223.045,53.696c-2.047,0-3.859,0.812-5.389,2.416
			c-1.534,1.607-2.312,3.708-2.312,6.246c0,2.538,0.802,4.69,2.383,6.398c1.572,1.699,3.379,2.561,5.368,2.561
			c2.006,0,3.626-0.81,4.953-2.474l0.668-0.839v3.048h4.215v-23.81h-4.215v9.342l-0.654-0.728
			C226.756,54.402,225.116,53.696,223.045,53.696z M224.27,67.83c-1.25,0-2.355-0.502-3.285-1.492
			c-0.924-0.981-1.393-2.254-1.393-3.782c0-1.521,0.454-2.817,1.349-3.853c0.909-1.053,2.019-1.587,3.296-1.587
			c1.28,0,2.373,0.53,3.25,1.574c0.86,1.026,1.296,2.32,1.296,3.849c0,1.532-0.438,2.808-1.302,3.79
			C226.605,67.325,225.525,67.83,224.27,67.83z M224.237,57.866c-1.064,0-1.957,0.434-2.728,1.327
			c-0.774,0.896-1.167,2.027-1.167,3.362c0,1.35,0.389,2.418,1.189,3.269c0.794,0.845,1.689,1.256,2.738,1.256
			c1.044,0,1.91-0.408,2.648-1.247c0.739-0.841,1.114-1.949,1.114-3.294c0-1.347-0.377-2.479-1.12-3.367
			C226.174,58.293,225.299,57.866,224.237,57.866z"/>
	</g>
	<g>
		<path fill="#2D3488" d="M253.43,68.844c-2.008,1.898-4.363,2.847-7.066,2.847s-4.938-0.833-6.703-2.499s-2.647-3.9-2.647-6.702
			c0-2.803,0.898-5.031,2.697-6.687c1.798-1.655,3.923-2.482,6.372-2.482s4.528,0.739,6.239,2.217
			c1.71,1.479,2.565,3.508,2.565,6.09v2.648h-12.976c0.154,0.971,0.662,1.766,1.522,2.383c0.86,0.618,1.831,0.927,2.913,0.927
			c1.743,0,3.178-0.584,4.303-1.754L253.43,68.844z M248.664,58.286c-0.684-0.573-1.517-0.861-2.499-0.861
			c-0.981,0-1.881,0.299-2.697,0.895s-1.291,1.401-1.423,2.416h7.812C249.745,59.675,249.348,58.86,248.664,58.286z"/>
		<path fill="#2D3488" d="M246.364,72.066c-2.789,0-5.131-0.875-6.961-2.602c-1.834-1.731-2.765-4.078-2.765-6.975
			c0-2.899,0.948-5.242,2.818-6.962c1.86-1.713,4.09-2.582,6.626-2.582c2.529,0,4.711,0.777,6.484,2.309
			c1.788,1.547,2.695,3.691,2.695,6.374v3.023H242.38c0.204,0.677,0.623,1.237,1.272,1.703c0.791,0.568,1.697,0.856,2.694,0.856
			c1.653,0,2.972-0.536,4.032-1.639l0.276-0.287l3.302,3.576l-0.27,0.255C251.618,71.074,249.154,72.066,246.364,72.066z
			 M246.083,53.696c-2.342,0-4.4,0.802-6.118,2.383c-1.709,1.573-2.576,3.73-2.576,6.411c0,2.683,0.852,4.846,2.53,6.43
			c1.685,1.59,3.854,2.396,6.445,2.396c2.471,0,4.667-0.839,6.535-2.494l-2.263-2.451c-1.149,1.056-2.59,1.591-4.289,1.591
			c-1.157,0-2.211-0.336-3.132-0.997c-0.94-0.675-1.504-1.56-1.674-2.629l-0.069-0.434h13.04v-2.273
			c0-2.455-0.819-4.409-2.436-5.807C250.444,54.411,248.427,53.696,246.083,53.696z M250.272,61.11h-8.654l0.055-0.424
			c0.146-1.115,0.675-2.014,1.574-2.67c0.879-0.642,1.86-0.967,2.918-0.967c1.067,0,1.989,0.319,2.74,0.949
			c0.757,0.635,1.203,1.542,1.324,2.697L250.272,61.11z M242.497,60.36h6.925c-0.148-0.763-0.478-1.35-0.999-1.787
			c-0.62-0.521-1.359-0.773-2.258-0.773c-0.896,0-1.729,0.277-2.477,0.822C243.069,59.074,242.676,59.645,242.497,60.36z"/>
	</g>
	<g>
		<path fill="#2D3488" d="M267.83,57.988c-1.479,0-2.582,0.524-3.311,1.572c-0.728,1.048-1.092,2.433-1.092,4.154v7.712h-4.965
			V53.619h4.965v2.35c0.64-0.729,1.439-1.346,2.399-1.854c0.96-0.507,1.937-0.772,2.93-0.794l0.033,4.667H267.83z"/>
		<path fill="#2D3488" d="M263.802,71.801h-5.715V53.244h5.715v1.815c0.536-0.481,1.155-0.908,1.849-1.275
			c1.008-0.532,2.05-0.814,3.098-0.837l0.38-0.008l0.039,5.425h-1.338c-1.36,0-2.343,0.461-3.003,1.411
			c-0.68,0.979-1.024,2.306-1.024,3.94V71.801z M258.837,71.051h4.215v-7.337c0-1.791,0.39-3.261,1.159-4.368
			c0.799-1.15,2.017-1.733,3.618-1.733h0.582l-0.027-3.896c-0.803,0.072-1.603,0.317-2.383,0.729
			c-0.916,0.485-1.688,1.081-2.292,1.77l-0.657,0.748v-2.971h-4.215V71.051z"/>
	</g>
	<g>
		<path fill="#2D3488" d="M271.056,70.847c-0.562-0.562-0.844-1.252-0.844-2.069c0-0.815,0.281-1.506,0.844-2.068
			c0.563-0.562,1.253-0.844,2.069-0.844s1.506,0.281,2.068,0.844s0.845,1.253,0.845,2.068c0,0.817-0.282,1.507-0.845,2.069
			s-1.252,0.844-2.068,0.844S271.62,71.41,271.056,70.847z"/>
		<path fill="#2D3488" d="M273.125,72.066c-0.915,0-1.7-0.32-2.334-0.953c-0.633-0.633-0.954-1.419-0.954-2.335
			s0.321-1.701,0.953-2.334c0.635-0.633,1.42-0.953,2.335-0.953c0.916,0,1.701,0.321,2.334,0.953
			c0.633,0.634,0.954,1.419,0.954,2.334c0,0.916-0.321,1.701-0.954,2.335C274.827,71.745,274.042,72.066,273.125,72.066z
			 M273.125,66.241c-0.72,0-1.31,0.24-1.805,0.734c-0.493,0.493-0.733,1.083-0.733,1.803s0.24,1.311,0.734,1.804
			c0.494,0.494,1.084,0.734,1.804,0.734s1.31-0.24,1.803-0.734c0.495-0.494,0.735-1.084,0.735-1.804c0-0.719-0.24-1.309-0.735-1.803
			C274.435,66.481,273.845,66.241,273.125,66.241z"/>
	</g>
	<g>
		<path fill="#2D3488" d="M288.781,67.289c1.655,0,3.145-0.827,4.469-2.482l2.946,3.311c-2.296,2.383-4.778,3.574-7.448,3.574
			s-4.927-0.844-6.769-2.532c-1.843-1.688-2.764-3.895-2.764-6.62c0-2.725,0.932-4.942,2.797-6.653
			c1.864-1.71,4.076-2.565,6.637-2.565c1.279,0,2.576,0.265,3.889,0.794c1.312,0.53,2.466,1.313,3.459,2.35l-2.582,3.376
			c-0.573-0.684-1.273-1.213-2.102-1.589c-0.827-0.375-1.649-0.562-2.466-0.562c-1.302,0-2.422,0.425-3.359,1.274
			c-0.938,0.85-1.407,2.03-1.407,3.541c0,1.512,0.469,2.688,1.407,3.525C286.425,66.87,287.523,67.289,288.781,67.289z"/>
		<path fill="#2D3488" d="M288.748,72.066c-2.755,0-5.118-0.885-7.021-2.631c-1.915-1.753-2.886-4.073-2.886-6.896
			c0-2.822,0.981-5.153,2.918-6.929c1.928-1.768,4.245-2.664,6.891-2.664c1.322,0,2.678,0.276,4.029,0.821
			c1.355,0.547,2.563,1.368,3.589,2.438l0.223,0.232l-3.062,4.003l-0.301-0.358c-0.534-0.637-1.197-1.138-1.97-1.489
			c-0.773-0.351-1.552-0.529-2.311-0.529c-1.217,0-2.233,0.385-3.107,1.177c-0.864,0.782-1.284,1.85-1.284,3.263
			c0,1.414,0.419,2.476,1.282,3.246c0.874,0.782,1.869,1.162,3.043,1.162c1.55,0,2.915-0.766,4.176-2.342l0.277-0.347l3.473,3.901
			l-0.24,0.25C294.107,70.825,291.51,72.066,288.748,72.066z M288.649,53.696c-2.451,0-4.599,0.83-6.383,2.466
			c-1.775,1.628-2.676,3.773-2.676,6.376c0,2.604,0.889,4.738,2.642,6.344c1.762,1.615,3.954,2.434,6.516,2.434
			c2.458,0,4.79-1.08,6.935-3.212l-2.424-2.724c-1.325,1.516-2.829,2.283-4.478,2.283c-1.348,0-2.539-0.455-3.543-1.354
			c-1.017-0.907-1.532-2.188-1.532-3.805c0-1.614,0.515-2.899,1.53-3.819c1.004-0.91,2.22-1.372,3.611-1.372
			c0.866,0,1.748,0.201,2.621,0.596c0.731,0.332,1.376,0.783,1.922,1.344l2.11-2.759c-0.901-0.883-1.944-1.566-3.104-2.034
			C291.136,53.954,289.875,53.696,288.649,53.696z"/>
	</g>
	<g>
		<path fill="#2D3488" d="M317.016,62.522c0,2.582-0.894,4.756-2.682,6.521c-1.787,1.766-4.033,2.647-6.735,2.647
			c-2.703,0-4.948-0.882-6.736-2.647c-1.787-1.766-2.681-3.939-2.681-6.521c0-2.581,0.894-4.761,2.681-6.537
			c1.788-1.776,4.033-2.665,6.736-2.665c2.702,0,4.948,0.888,6.735,2.665C316.123,57.761,317.016,59.941,317.016,62.522z
			 M303.18,62.522c0,1.457,0.414,2.644,1.241,3.559c0.827,0.916,1.887,1.374,3.178,1.374s2.35-0.458,3.178-1.374
			c0.827-0.915,1.241-2.102,1.241-3.559c0-1.456-0.414-2.647-1.241-3.574c-0.828-0.927-1.887-1.391-3.178-1.391
			s-2.351,0.464-3.178,1.391S303.18,61.066,303.18,62.522z"/>
		<path fill="#2D3488" d="M307.599,72.066c-2.793,0-5.148-0.927-7-2.756c-1.853-1.83-2.792-4.114-2.792-6.788
			c0-2.673,0.939-4.962,2.791-6.803c1.853-1.84,4.208-2.773,7.001-2.773s5.148,0.933,7,2.773c1.853,1.84,2.792,4.129,2.792,6.803
			s-0.939,4.958-2.793,6.788C312.748,71.139,310.392,72.066,307.599,72.066z M307.599,53.696c-2.588,0-4.765,0.86-6.472,2.556
			c-1.706,1.694-2.57,3.804-2.57,6.271c0,2.466,0.864,4.57,2.569,6.255c1.706,1.685,3.884,2.539,6.473,2.539
			s4.767-0.854,6.472-2.539c1.706-1.685,2.57-3.789,2.57-6.255c0-2.467-0.865-4.576-2.571-6.271
			C312.364,54.556,310.187,53.696,307.599,53.696z M307.599,67.83c-1.396,0-2.559-0.504-3.456-1.498
			c-0.888-0.981-1.338-2.264-1.338-3.81c0-1.544,0.449-2.831,1.337-3.824c0.897-1.006,2.061-1.516,3.457-1.516
			c1.396,0,2.559,0.51,3.457,1.516c0.888,0.994,1.337,2.28,1.337,3.824c0,1.546-0.45,2.828-1.338,3.811
			C310.157,67.326,308.994,67.83,307.599,67.83z M307.599,57.932c-1.19,0-2.138,0.414-2.898,1.265
			c-0.76,0.852-1.146,1.971-1.146,3.325c0,1.354,0.385,2.467,1.145,3.307c0.76,0.842,1.708,1.251,2.899,1.251
			c1.19,0,2.139-0.409,2.899-1.251c0.76-0.84,1.145-1.952,1.145-3.307c0-1.354-0.386-2.473-1.146-3.325
			C309.736,58.346,308.789,57.932,307.599,57.932z"/>
	</g>
	<g>
		<path fill="#2D3488" d="M321.037,70.847c-0.562-0.562-0.844-1.252-0.844-2.069c0-0.815,0.281-1.506,0.844-2.068
			c0.563-0.562,1.253-0.844,2.069-0.844s1.506,0.281,2.068,0.844s0.845,1.253,0.845,2.068c0,0.817-0.282,1.507-0.845,2.069
			s-1.252,0.844-2.068,0.844S321.6,71.41,321.037,70.847z"/>
		<path fill="#2D3488" d="M323.106,72.066c-0.915,0-1.7-0.32-2.334-0.953c-0.633-0.633-0.954-1.419-0.954-2.335
			s0.321-1.701,0.953-2.334c0.635-0.633,1.42-0.953,2.335-0.953c0.916,0,1.701,0.321,2.334,0.953
			c0.633,0.634,0.954,1.419,0.954,2.334c0,0.916-0.321,1.701-0.954,2.335C324.807,71.745,324.022,72.066,323.106,72.066z
			 M323.106,66.241c-0.72,0-1.31,0.24-1.805,0.734c-0.493,0.493-0.733,1.083-0.733,1.803s0.24,1.311,0.734,1.804
			c0.494,0.494,1.084,0.734,1.804,0.734s1.31-0.24,1.803-0.734c0.495-0.494,0.735-1.084,0.735-1.804c0-0.719-0.24-1.309-0.735-1.803
			C324.416,66.481,323.826,66.241,323.106,66.241z"/>
	</g>
	<g>
		<path fill="#2D3488" d="M341.708,63.217v-9.599h4.998v17.808h-4.998v-2.351c-1.236,1.744-2.83,2.615-4.783,2.615
			s-3.591-0.612-4.915-1.837s-1.986-3.039-1.986-5.445v-10.79h4.998v9.698c0,2.736,1.004,4.104,3.013,4.104
			c0.992,0,1.854-0.358,2.581-1.076C341.343,65.628,341.708,64.586,341.708,63.217z"/>
		<path fill="#2D3488" d="M336.924,72.066c-2.041,0-3.78-0.651-5.17-1.937c-1.397-1.293-2.106-3.218-2.106-5.721V53.244h5.748
			v10.073c0,2.51,0.863,3.729,2.638,3.729c0.899,0,1.657-0.316,2.317-0.968c0.651-0.641,0.981-1.604,0.981-2.861v-9.974h5.748
			v18.558h-5.748v-1.67C340.132,71.417,338.654,72.066,336.924,72.066z M330.398,53.994v10.415c0,2.285,0.628,4.025,1.866,5.17
			c1.246,1.152,2.814,1.737,4.66,1.737c1.841,0,3.306-0.804,4.478-2.457l0.681-0.961v3.153h4.248V53.994h-4.248v9.224
			c0,1.467-0.405,2.608-1.205,3.396c-0.796,0.785-1.753,1.184-2.844,1.184c-1.546,0-3.388-0.777-3.388-4.479v-9.323H330.398z"/>
	</g>
	<g>
		<path fill="#2D3488" d="M356.371,71.426h-4.965v-24.56h4.965v12.611l5.527-5.892h6.256l-6.785,7.216l7.05,10.625h-5.892
			l-4.535-6.818l-1.621,1.688V71.426z"/>
		<path fill="#2D3488" d="M369.118,71.801h-6.792l-4.388-6.597l-1.192,1.242v5.354h-5.715v-25.31h5.715v12.038l4.99-5.319h7.285
			l-7.176,7.632L369.118,71.801z M362.728,71.051h4.991l-6.827-10.291l6.395-6.8h-5.227l-6.064,6.464V47.241h-4.215v23.81h4.215
			v-4.907l2.05-2.133L362.728,71.051z"/>
	</g>
</g>
</svg>
