<?xml version="1.0" encoding="utf-8"?>
<!-- Generator: Adobe Illustrator 16.0.0, SVG Export Plug-In . SVG Version: 6.00 Build 0)  -->
<!DOCTYPE svg PUBLIC "-//W3C//DTD SVG 1.1//EN" "http://www.w3.org/Graphics/SVG/1.1/DTD/svg11.dtd">
<svg version="1.1" id="Layer_1" xmlns="http://www.w3.org/2000/svg" xmlns:xlink="http://www.w3.org/1999/xlink" x="0px" y="0px"
	 width="133.945px" height="37.042px" viewBox="0 0 133.945 37.042" enable-background="new 0 0 133.945 37.042"
	 xml:space="preserve">
<polygon fill="#5E3088" points="7.781,13.261 10.185,18.916 15.561,18.916 11.672,22.708 12.589,28.061 7.781,25.533 2.971,28.061 
	3.89,22.708 0,18.916 5.377,18.916 "/>
<polygon fill="#5E3088" points="25.79,13.261 28.195,18.916 33.57,18.916 29.68,22.708 30.598,28.061 25.79,25.533 20.982,28.061 
	21.899,22.708 18.01,18.916 23.385,18.916 "/>
<polygon fill="#5E3088" points="43.799,13.261 46.203,18.916 51.579,18.916 47.69,22.708 48.608,28.061 43.799,25.533 38.99,28.061 
	39.908,22.708 36.018,18.916 41.394,18.916 "/>
<polygon fill="#5E3088" points="61.808,13.261 64.214,18.916 69.589,18.916 65.698,22.708 66.617,28.061 61.808,25.533 57,28.061 
	57.919,22.708 54.029,18.916 59.404,18.916 "/>
<polygon fill="#5E3088" points="79.817,13.261 82.221,18.916 87.598,18.916 83.71,22.708 84.626,28.061 79.817,25.533 
	75.009,28.061 75.927,22.708 72.037,18.916 77.414,18.916 "/>
<path fill="#5E3088" d="M118.568,9.378l-12.659,12.658l-1.222,5.506l5.503-1.223l12.659-12.659L118.568,9.378z M109.966,24.186
	l-1.956-1.956l10.637-10.636l1.956,1.957L109.966,24.186z"/>
<path fill="#5E3088" d="M122.494,6.652c-0.693,0-1.334,0.229-1.849,0.614l-1.233,1.234l4.317,4.315l1.23-1.235
	c0.388-0.515,0.616-1.153,0.616-1.846C125.576,8.032,124.195,6.652,122.494,6.652z"/>
<path fill="#5E3088" d="M121.161,16.91v16.266H99.288V9.401h17.551l2.854-2.853H98.813c-1.312,0-2.378,1.068-2.378,2.377v24.725
	c0,1.312,1.066,2.378,2.378,2.378h22.823c1.312,0,2.377-1.066,2.377-2.378V14.057L121.161,16.91z"/>
</svg>
