<?xml version="1.0" encoding="utf-8"?>
<!-- Generator: Adobe Illustrator 16.0.0, SVG Export Plug-In . SVG Version: 6.00 Build 0)  -->
<!DOCTYPE svg PUBLIC "-//W3C//DTD SVG 1.1//EN" "http://www.w3.org/Graphics/SVG/1.1/DTD/svg11.dtd">
<svg version="1.1" id="v3_copy" xmlns="http://www.w3.org/2000/svg" xmlns:xlink="http://www.w3.org/1999/xlink" x="0px" y="0px"
	 width="40px" height="40px" viewBox="0 0 40 40" enable-background="new 0 0 40 40" xml:space="preserve">
<rect x="19.838" y="31.779" fill="#FFFFFF" width="3.82" height="3.816"/>
<rect x="19.838" y="26.046" fill="#FFFFFF" width="3.82" height="3.821"/>
<rect x="19.838" y="20.32" fill="#FFFFFF" width="3.82" height="3.819"/>
<rect x="25.568" y="26.046" fill="#FFFFFF" width="3.818" height="3.821"/>
<rect x="25.568" y="20.32" fill="#FFFFFF" width="3.818" height="3.819"/>
<rect x="14.108" y="26.046" fill="#FFFFFF" width="3.82" height="3.821"/>
<rect x="8.379" y="31.779" fill="#FFFFFF" width="3.818" height="3.816"/>
<rect x="14.108" y="20.32" fill="#FFFFFF" width="3.82" height="3.819"/>
<rect x="8.379" y="26.046" fill="#FFFFFF" width="3.818" height="3.821"/>
<rect x="14.108" y="31.779" fill="#FFFFFF" width="3.82" height="3.816"/>
<path fill="#FFFFFF" d="M31.617,14.292c-3.387,0-6.227-2.307-7.055-5.432H12.197v1.908H8.379V8.86h-3.82v30.557h28.648V14.113
	C32.693,14.227,32.164,14.292,31.617,14.292z M31.297,37.509H6.468V16.497h24.829V37.509z"/>
<path fill="#FFFFFF" d="M31.617,0.333c-3.682,0-6.654,2.977-6.654,6.654c0,3.677,2.975,6.655,6.654,6.655
	c3.675,0,6.652-2.979,6.652-6.655C38.27,3.31,35.292,0.333,31.617,0.333z M32.648,11.254h-1.717V4.773h-1.523V3.25h3.24V11.254z"/>
</svg>
