<?xml version="1.0" encoding="utf-8"?>
<!-- Generator: Adobe Illustrator 16.0.0, SVG Export Plug-In . SVG Version: 6.00 Build 0)  -->
<!DOCTYPE svg PUBLIC "-//W3C//DTD SVG 1.1//EN" "http://www.w3.org/Graphics/SVG/1.1/DTD/svg11.dtd">
<svg version="1.1" xmlns="http://www.w3.org/2000/svg" xmlns:xlink="http://www.w3.org/1999/xlink" x="0px" y="0px" width="40px"
	 height="40px" viewBox="0 0 40 40" enable-background="new 0 0 40 40" xml:space="preserve">
<g id="Layer_1">
	<rect x="-0.549" y="-0.742" display="none" fill="#AF2424" width="41.214" height="41.408"/>
	<path display="none" fill="#FFFFFF" d="M10,12h20.8v4.457H10V12z M10,17.943h20.8v4.461H10V17.943z M10,23.887h20.8v4.459H10
		V23.887z"/>
	<path fill="#FFFFFF" d="M30.513,25.574c0-5.653-5.026-4.395-5.026-8.793c0-0.364-0.032-0.676-0.099-0.939
		c-0.33-2.219-1.811-4-3.722-4.544c0.016-0.076,0.025-0.155,0.025-0.236c0-0.653-0.568-1.188-1.258-1.188
		c-0.69,0-1.255,0.536-1.255,1.188c0,0.083,0.009,0.162,0.025,0.24c-2.146,0.608-3.747,2.773-3.791,5.367
		c-0.001,0.037-0.001,0.077-0.001,0.115c0,4.396-5.026,3.14-5.026,8.793c0,1.495,3.351,2.747,7.83,3.063
		c0.422,0.792,1.257,1.331,2.219,1.331c0.962,0,1.796-0.539,2.221-1.331c4.479-0.316,7.829-1.569,7.829-3.063
		c0-0.003,0-0.011,0-0.014L30.513,25.574z M26.598,26.637c-1.062,0.286-2.317,0.489-3.665,0.603
		c-0.112-1.284-1.188-2.291-2.502-2.291c-1.312,0-2.389,1.007-2.502,2.291c-1.345-0.113-2.602-0.315-3.666-0.604
		c-1.462-0.389-2.163-0.826-2.418-1.061c0.256-0.232,0.956-0.67,2.418-1.058c1.703-0.454,3.896-0.708,6.168-0.708
		c2.273,0,4.465,0.251,6.167,0.708c1.465,0.39,2.166,0.829,2.424,1.058C28.764,25.809,28.067,26.246,26.598,26.637"/>
</g>
<g id="Layer_2" display="none">
</g>
</svg>
