<?xml version="1.0" encoding="utf-8"?>
<!-- Generator: Adobe Illustrator 16.0.0, SVG Export Plug-In . SVG Version: 6.00 Build 0)  -->
<!DOCTYPE svg PUBLIC "-//W3C//DTD SVG 1.1//EN" "http://www.w3.org/Graphics/SVG/1.1/DTD/svg11.dtd">
<svg version="1.1" id="Layer_1" xmlns="http://www.w3.org/2000/svg" xmlns:xlink="http://www.w3.org/1999/xlink" x="0px" y="0px"
	 width="104px" height="60px" viewBox="0 0 104 60" enable-background="new 0 0 104 60" xml:space="preserve">
<path fill="#FFFFFF" d="M58.397,7.762V0l12,12l-12,12v-7.931C44.437,15.741,45.036,25.56,48.59,32
	C39.818,22.517,41.68,7.326,58.397,7.762"/>
<g>
	<path fill="#FFFFFF" d="M89.37,25.706c-7.781,12.369-21.547,20.613-37.209,20.613c-15.663,0-29.429-8.244-37.21-20.613h-4.612
		c8.204,14.649,23.871,24.582,41.822,24.582c17.951,0,33.619-9.933,41.822-24.582H89.37L89.37,25.706z"/>
	<path fill="#FFFFFF" d="M81.714,25.706c-6.924,8.793-17.652,14.455-29.688,14.455c-12.032,0-22.762-5.662-29.686-14.455h-3.703
		c7.377,10.527,19.589,17.428,33.391,17.428c13.801,0,26.014-6.899,33.391-17.429L81.714,25.706L81.714,25.706z"/>
	<path fill="#FFFFFF" d="M97.173,25.956c-8.533,16.32-25.621,27.49-45.278,27.49c-19.656,0-36.743-11.17-45.276-27.49H0
		c8.988,19.705,28.86,33.44,51.894,33.44c23.034,0,42.907-13.735,51.896-33.44H97.173L97.173,25.956z"/>
</g>
</svg>
