<?xml version="1.0" encoding="utf-8"?>
<!-- Generator: Adobe Illustrator 16.0.0, SVG Export Plug-In . SVG Version: 6.00 Build 0)  -->
<!DOCTYPE svg PUBLIC "-//W3C//DTD SVG 1.1//EN" "http://www.w3.org/Graphics/SVG/1.1/DTD/svg11.dtd">
<svg version="1.1" id="Layer_1" xmlns="http://www.w3.org/2000/svg" xmlns:xlink="http://www.w3.org/1999/xlink" x="0px" y="0px"
	 width="33.4px" height="34.127px" viewBox="0 0 33.4 34.127" enable-background="new 0 0 33.4 34.127" xml:space="preserve">
<g>
	<g>
		<path fill="#515861" d="M32.407,28.229l-7.579-6.446c-0.783-0.705-1.622-1.028-2.3-0.998c1.79-2.095,2.871-4.812,2.871-7.785
			c0-6.627-5.374-12-12.001-12c-6.626,0-12,5.373-12,12s5.373,12,12,12c2.974,0,5.691-1.082,7.788-2.87
			c-0.031,0.678,0.291,1.516,0.998,2.301l6.447,7.578c1.104,1.229,2.904,1.33,4.006,0.229
			C33.738,31.138,33.635,29.334,32.407,28.229 M13.398,20.998c-4.417,0-8-3.582-8-8s3.582-8,8-8s8.001,3.582,8.001,8
			S17.816,20.998,13.398,20.998"/>
	</g>
</g>
</svg>
