<?xml version="1.0" encoding="utf-8"?>
<!-- Generator: Adobe Illustrator 16.0.0, SVG Export Plug-In . SVG Version: 6.00 Build 0)  -->
<!DOCTYPE svg PUBLIC "-//W3C//DTD SVG 1.1//EN" "http://www.w3.org/Graphics/SVG/1.1/DTD/svg11.dtd">
<svg version="1.1" id="Layer_1" xmlns="http://www.w3.org/2000/svg" xmlns:xlink="http://www.w3.org/1999/xlink" x="0px" y="0px"
	 width="24.1px" height="24.164px" viewBox="0 0 24.1 24.164" enable-background="new 0 0 24.1 24.164" xml:space="preserve">
<path fill="#FFFFFF" d="M68.621,25.859c-3.978,0-7.197,3.223-7.197,7.197c0,7.192,7.197,15.832,7.197,15.832
	s7.194-8.64,7.194-15.832C75.816,29.082,72.594,25.859,68.621,25.859 M68.621,37.463c-2.437,0-4.409-1.973-4.409-4.406
	c0-2.436,1.975-4.408,4.409-4.408c2.434,0,4.405,1.974,4.405,4.408C73.027,35.49,71.055,37.463,68.621,37.463 M65.831,33.057
	c0,1.541,1.249,2.789,2.79,2.789c1.539,0,2.788-1.248,2.788-2.789s-1.249-2.789-2.788-2.789
	C67.08,30.268,65.831,31.516,65.831,33.057"/>
<path fill="#5E3088" d="M11.869,0c-4.143,0-7.5,3.357-7.5,7.499c0,7.499,7.5,16.497,7.5,16.497s7.499-8.998,7.499-16.497
	C19.368,3.357,16.01,0,11.869,0 M11.869,12.092c-2.537,0-4.594-2.056-4.594-4.593s2.057-4.593,4.594-4.593
	c2.535,0,4.593,2.056,4.593,4.593S14.405,12.092,11.869,12.092 M8.963,7.499c0,1.606,1.302,2.906,2.906,2.906s2.904-1.3,2.904-2.906
	c0-1.605-1.3-2.906-2.904-2.906C10.264,4.593,8.963,5.893,8.963,7.499"/>
</svg>
