<?xml version="1.0" encoding="utf-8"?>
<!-- Generator: Adobe Illustrator 16.0.0, SVG Export Plug-In . SVG Version: 6.00 Build 0)  -->
<!DOCTYPE svg PUBLIC "-//W3C//DTD SVG 1.1//EN" "http://www.w3.org/Graphics/SVG/1.1/DTD/svg11.dtd">
<svg version="1.1" id="Layer_1" xmlns="http://www.w3.org/2000/svg" xmlns:xlink="http://www.w3.org/1999/xlink" x="0px" y="0px"
	 width="32px" height="26px" viewBox="0 0 32 26" enable-background="new 0 0 32 26" xml:space="preserve">
<path fill="#5E3088" d="M9.443,15c0,3.59,2.91,6.5,6.5,6.5c3.59,0,6.5-2.91,6.5-6.5s-2.91-6.5-6.5-6.5
	C12.353,8.5,9.443,11.41,9.443,15 M29.943,4h-7c-0.5-2-1-4-3-4h-8c-2,0-2.5,2-3,4h-7c-1.1,0-2,0.898-2,2v18c0,1.1,0.9,2,2,2h28
	c1.1,0,2-0.9,2-2V6C31.943,4.898,31.043,4,29.943,4 M15.943,23.875c-4.902,0-8.875-3.974-8.875-8.875s3.973-8.875,8.875-8.875
	c4.903,0,8.875,3.974,8.875,8.875S20.846,23.875,15.943,23.875 M29.943,10h-4V8h4V10z"/>
</svg>
