<?xml version="1.0" encoding="utf-8"?>
<!-- Generator: Adobe Illustrator 15.0.0, SVG Export Plug-In . SVG Version: 6.00 Build 0)  -->
<!DOCTYPE svg PUBLIC "-//W3C//DTD SVG 1.1//EN" "http://www.w3.org/Graphics/SVG/1.1/DTD/svg11.dtd">
<svg version="1.1" id="v3" xmlns="http://www.w3.org/2000/svg" xmlns:xlink="http://www.w3.org/1999/xlink" x="0px" y="0px"
	 width="40px" height="40px" viewBox="0 0 40 40" enable-background="new 0 0 40 40" xml:space="preserve">
<g>
	<rect x="20.08" y="31.367" fill="#FFFFFF" width="3.77" height="3.767"/>
	<rect x="20.08" y="25.709" fill="#FFFFFF" width="3.77" height="3.771"/>
	<rect x="20.08" y="20.058" fill="#FFFFFF" width="3.77" height="3.768"/>
	<rect x="25.734" y="25.709" fill="#FFFFFF" width="3.77" height="3.771"/>
	<rect x="25.734" y="20.058" fill="#FFFFFF" width="3.77" height="3.768"/>
	<rect x="14.425" y="25.709" fill="#FFFFFF" width="3.77" height="3.771"/>
	<rect x="8.771" y="31.367" fill="#FFFFFF" width="3.768" height="3.767"/>
	<rect x="14.425" y="20.058" fill="#FFFFFF" width="3.77" height="3.768"/>
	<rect x="8.771" y="25.709" fill="#FFFFFF" width="3.768" height="3.771"/>
	<rect x="14.425" y="31.367" fill="#FFFFFF" width="3.77" height="3.767"/>
</g>
<path fill="#FFFFFF" d="M31.704,14.109c-3.342,0-6.144-2.277-6.961-5.361H12.539v1.883H8.771V8.748H5v30.157h28.273V13.933
	C32.768,14.045,32.244,14.109,31.704,14.109z M31.388,37.022H6.885V16.286h24.503V37.022z"/>
<path fill="#FFFFFF" d="M31.704,0.333c-3.632,0-6.567,2.938-6.567,6.567c0,3.628,2.936,6.568,6.567,6.568
	c3.627,0,6.565-2.939,6.565-6.568C38.27,3.271,35.331,0.333,31.704,0.333z M33.639,10.496c-0.561,0.471-1.278,0.706-2.152,0.706
	s-1.759-0.309-2.655-0.927l0.723-1.401c0.746,0.527,1.413,0.791,2,0.791c0.354,0,0.646-0.087,0.876-0.26
	c0.229-0.173,0.345-0.424,0.345-0.751s-0.132-0.587-0.396-0.78c-0.264-0.192-0.629-0.288-1.096-0.288
	c-0.249,0-0.6,0.072-1.052,0.215V6.5l1.515-1.785h-2.475V3.212h4.837v1.22l-1.616,1.842c0.633,0.105,1.122,0.371,1.469,0.796
	c0.347,0.426,0.52,0.917,0.52,1.475C34.48,9.375,34.2,10.025,33.639,10.496z"/>
<line fill="none" stroke="#FFFFFF" stroke-width="0.25" stroke-miterlimit="10" x1="-94.375" y1="51.167" x2="-94.375" y2="39.417"/>
<path fill="#F5F5F5" d="M-97.75,45.834h0.557v0.559h-0.557V45.834z M-96.914,45.834h0.557v0.559h-0.557V45.834z M-96.078,45.834
	h0.558v0.559h-0.558V45.834z M-98.586,47.506h0.558v0.559h-0.558V47.506z M-97.75,47.506h0.557v0.559h-0.557V47.506z
	 M-96.914,47.506h0.557v0.559h-0.557V47.506z M-97.75,46.67h0.557v0.559h-0.557V46.67z M-96.914,46.67h0.557v0.559h-0.557V46.67z
	 M-96.078,46.67h0.558v0.559h-0.558V46.67z M-98.586,46.67h0.558v0.559h-0.558V46.67z M-95.521,44.162v0.279h-0.558v-0.279h-1.951
	v0.279h-0.558v-0.279h-0.557v4.459h4.18v-4.459H-95.521z M-95.243,48.342h-3.622v-3.064h3.622V48.342z"/>
</svg>
