<?xml version="1.0" encoding="utf-8"?>
<!-- Generator: Adobe Illustrator 15.0.0, SVG Export Plug-In . SVG Version: 6.00 Build 0)  -->
<!DOCTYPE svg PUBLIC "-//W3C//DTD SVG 1.1//EN" "http://www.w3.org/Graphics/SVG/1.1/DTD/svg11.dtd">
<svg version="1.1" xmlns="http://www.w3.org/2000/svg" xmlns:xlink="http://www.w3.org/1999/xlink" x="0px" y="0px"
	 width="72.014px" height="71.89px" viewBox="0 0 72.014 71.89" enable-background="new 0 0 72.014 71.89" xml:space="preserve">
<g id="commercial">
	<ellipse fill="#CBBCF1" cx="36.007" cy="35.945" rx="36.007" ry="35.944"/>
	<g>
		<defs>
			<circle id="SVGID_1_" cx="35.945" cy="35.737" r="36.07"/>
		</defs>
		<clipPath id="SVGID_2_">
			<use xlink:href="#SVGID_1_"  overflow="visible"/>
		</clipPath>
		<g clip-path="url(#SVGID_2_)">
			<g>
				<g>
					<g>
						<g>
							<path fill="#5C4E9A" d="M65.487,79.221c-5.859-10.463-17.049-17.557-29.869-17.557c-12.82,0-24.009,7.094-29.87,17.557h3.295
								c5.559-8.833,15.391-14.722,26.575-14.722c11.188,0,21.018,5.889,26.576,14.722"/>
							<path fill="#5C4E9A" d="M59.559,79.221c-5.268-7.519-13.99-12.447-23.846-12.447c-9.856,0-18.579,4.929-23.847,12.447h2.646
								c4.945-6.28,12.608-10.324,21.201-10.324c8.594,0,16.256,4.044,21.201,10.324H59.559"/>
							<path fill="#5C4E9A" d="M72.87,79.042c-6.418-14.073-20.611-23.884-37.061-23.884c-16.451,0-30.644,9.811-37.063,23.884
								h4.727C9.565,67.387,21.77,59.408,35.809,59.408c14.037,0,26.242,7.979,32.336,19.634"/>
						</g>
					</g>
				</g>
			</g>
		</g>
	</g>
	<polygon fill="#5C4E9C" points="51.901,33.585 45.901,27.585 45.901,18.585 41.901,18.585 41.901,23.585 35.901,17.585 
		19.9,33.585 19.9,34.585 23.9,34.585 23.9,44.585 33.9,44.585 33.9,38.585 37.901,38.585 37.901,44.585 47.901,44.585 
		47.901,34.585 51.901,34.585 	"/>
</g>
<g id="guest" display="none">
	<ellipse display="inline" fill="#CBBCF1" cx="36.007" cy="35.945" rx="36.007" ry="35.944"/>
	<path display="inline" fill="#5C4E9C" d="M28.381,27.103c0,3.808,3.087,6.893,6.893,6.893c3.807,0,6.895-3.085,6.895-6.893
		c0-3.807-3.088-6.893-6.895-6.893C31.468,20.21,28.381,23.296,28.381,27.103 M42.168,35.72H28.381
		c-3.806,0-6.893,3.085-6.893,6.893v1.723h0.217h27.139h0.217v-1.723C49.061,38.805,45.975,35.72,42.168,35.72"/>
	<g display="inline">
		<defs>
			<circle id="SVGID_3_" cx="35.945" cy="35.737" r="36.07"/>
		</defs>
		<clipPath id="SVGID_4_">
			<use xlink:href="#SVGID_3_"  overflow="visible"/>
		</clipPath>
		<g clip-path="url(#SVGID_4_)">
			<g>
				<g>
					<g>
						<g>
							<path fill="#5C4E9A" d="M65.487,79.221c-5.859-10.463-17.049-17.557-29.869-17.557c-12.82,0-24.009,7.094-29.87,17.557h3.295
								c5.559-8.833,15.391-14.722,26.575-14.722c11.188,0,21.018,5.889,26.576,14.722"/>
							<path fill="#5C4E9A" d="M59.559,79.221c-5.268-7.519-13.99-12.447-23.846-12.447c-9.856,0-18.579,4.929-23.847,12.447h2.646
								c4.945-6.28,12.608-10.324,21.201-10.324c8.594,0,16.256,4.044,21.201,10.324H59.559"/>
							<path fill="#5C4E9A" d="M72.87,79.042c-6.418-14.073-20.611-23.884-37.061-23.884c-16.451,0-30.644,9.811-37.063,23.884
								h4.727C9.565,67.387,21.77,59.408,35.809,59.408c14.037,0,26.242,7.979,32.336,19.634"/>
						</g>
					</g>
				</g>
			</g>
		</g>
	</g>
</g>
</svg>
