<?xml version="1.0" encoding="utf-8"?>
<!-- Generator: Adobe Illustrator 15.0.0, SVG Export Plug-In . SVG Version: 6.00 Build 0)  -->
<!DOCTYPE svg PUBLIC "-//W3C//DTD SVG 1.1//EN" "http://www.w3.org/Graphics/SVG/1.1/DTD/svg11.dtd">
<svg version="1.1" xmlns="http://www.w3.org/2000/svg" xmlns:xlink="http://www.w3.org/1999/xlink" x="0px" y="0px"
	 width="72.014px" height="71.89px" viewBox="0 0 72.014 71.89" enable-background="new 0 0 72.014 71.89" xml:space="preserve">
<g id="trader">
	<ellipse fill="#CBBCF1" cx="36.007" cy="35.945" rx="36.007" ry="35.944"/>
	<g>
		<defs>
			<circle id="SVGID_1_" cx="35.945" cy="35.737" r="36.07"/>
		</defs>
		<clipPath id="SVGID_2_">
			<use xlink:href="#SVGID_1_"  overflow="visible"/>
		</clipPath>
		<g clip-path="url(#SVGID_2_)">
			<g>
				<g>
					<g>
						<g>
							<path fill="#5C4E9A" d="M65.487,79.221c-5.859-10.463-17.049-17.557-29.869-17.557c-12.82,0-24.009,7.094-29.87,17.557h3.295
								c5.559-8.833,15.391-14.722,26.575-14.722c11.188,0,21.018,5.889,26.576,14.722"/>
							<path fill="#5C4E9A" d="M59.559,79.221c-5.268-7.519-13.99-12.447-23.846-12.447c-9.856,0-18.579,4.929-23.847,12.447h2.646
								c4.945-6.28,12.608-10.324,21.201-10.324c8.594,0,16.256,4.044,21.201,10.324H59.559"/>
							<path fill="#5C4E9A" d="M72.87,79.042c-6.418-14.073-20.611-23.884-37.061-23.884c-16.451,0-30.644,9.811-37.063,23.884
								h4.727C9.565,67.387,21.77,59.408,35.809,59.408c14.037,0,26.242,7.979,32.336,19.634"/>
						</g>
					</g>
				</g>
			</g>
		</g>
	</g>
	<g>
		<g>
			<path fill="#5C4E9C" d="M50.422,32.43v-2.666l-2.809-0.51c-0.051-0.334-0.117-0.665-0.197-0.993l2.398-1.543l-1.02-2.464
				l-2.789,0.605c-0.177-0.289-0.364-0.571-0.563-0.84l1.627-2.35l-1.887-1.885l-2.347,1.626c-0.271-0.199-0.553-0.385-0.84-0.562
				l0.603-2.79l-2.462-1.02l-1.546,2.399c-0.326-0.079-0.657-0.146-0.991-0.197l-0.512-2.809h-2.666l-0.511,2.809
				c-0.335,0.051-0.665,0.119-0.991,0.197l-1.547-2.399l-2.461,1.02l0.603,2.789c-0.288,0.178-0.569,0.364-0.84,0.563l-2.348-1.626
				l-1.886,1.885l1.626,2.348c-0.199,0.271-0.387,0.551-0.562,0.842l-2.79-0.605l-1.02,2.464l2.398,1.543
				c-0.078,0.329-0.146,0.659-0.198,0.993l-2.807,0.51v2.666l2.807,0.51c0.052,0.335,0.119,0.666,0.198,0.99l-2.398,1.547
				l1.02,2.464l2.79-0.604c0.176,0.288,0.363,0.57,0.562,0.839l-1.626,2.351l1.886,1.885l2.348-1.627
				c0.271,0.197,0.552,0.385,0.84,0.561l-0.603,2.793l2.463,1.018l1.545-2.398c0.326,0.078,0.656,0.146,0.991,0.197l0.511,2.809
				h2.666l0.511-2.809c0.335-0.051,0.666-0.119,0.991-0.197l1.546,2.398l2.463-1.018l-0.603-2.793
				c0.287-0.176,0.568-0.363,0.838-0.561l2.349,1.627l1.887-1.885l-1.627-2.351c0.199-0.269,0.387-0.551,0.561-0.839l2.792,0.604
				l1.02-2.464l-2.398-1.547c0.078-0.324,0.146-0.655,0.197-0.99L50.422,32.43z M35.755,36.897c-3.203,0-5.799-2.597-5.799-5.799
				c0-3.204,2.596-5.8,5.799-5.8c3.204,0,5.799,2.597,5.799,5.8C41.554,34.3,38.959,36.897,35.755,36.897"/>
		</g>
	</g>
</g>
<g id="supplier" display="none">
	<ellipse display="inline" fill="#CBBCF1" cx="36.007" cy="35.945" rx="36.007" ry="35.944"/>
	<g display="inline">
		<defs>
			<circle id="SVGID_3_" cx="35.945" cy="35.737" r="36.07"/>
		</defs>
		<clipPath id="SVGID_4_">
			<use xlink:href="#SVGID_3_"  overflow="visible"/>
		</clipPath>
		<g clip-path="url(#SVGID_4_)">
			<g>
				<g>
					<g>
						<g>
							<path fill="#5C4E9A" d="M65.487,79.221c-5.859-10.463-17.049-17.557-29.869-17.557c-12.82,0-24.009,7.094-29.87,17.557h3.295
								c5.559-8.833,15.391-14.722,26.575-14.722c11.188,0,21.018,5.889,26.576,14.722"/>
							<path fill="#5C4E9A" d="M59.559,79.221c-5.268-7.519-13.99-12.447-23.846-12.447c-9.856,0-18.579,4.929-23.847,12.447h2.646
								c4.945-6.28,12.608-10.324,21.201-10.324c8.594,0,16.256,4.044,21.201,10.324H59.559"/>
							<path fill="#5C4E9A" d="M72.87,79.042c-6.418-14.073-20.611-23.884-37.061-23.884c-16.451,0-30.644,9.811-37.063,23.884
								h4.727C9.565,67.387,21.77,59.408,35.809,59.408c14.037,0,26.242,7.979,32.336,19.634"/>
						</g>
					</g>
				</g>
			</g>
		</g>
	</g>
	<path display="inline" fill="#5C4E9C" d="M49.2,39.881L36.458,28.958c0.594-1.115,0.93-2.387,0.93-3.738
		c0-4.401-3.567-7.969-7.968-7.969c-0.805,0-1.583,0.119-2.315,0.342l4.604,4.604c0.688,0.69,0.688,1.816,0,2.505L28.9,27.509
		c-0.689,0.69-1.815,0.69-2.504,0l-4.604-4.604c-0.223,0.732-0.342,1.51-0.342,2.314c0,4.401,3.567,7.969,7.969,7.969
		c1.352,0,2.623-0.336,3.738-0.931L44.079,45c0.635,0.739,1.717,0.781,2.406,0.093l2.807-2.809
		C49.981,41.596,49.94,40.515,49.2,39.881"/>
</g>
<g id="commercial" display="none">
	<ellipse display="inline" fill="#CBBCF1" cx="36.007" cy="35.945" rx="36.007" ry="35.944"/>
	<g display="inline">
		<defs>
			<circle id="SVGID_5_" cx="35.945" cy="35.737" r="36.07"/>
		</defs>
		<clipPath id="SVGID_6_">
			<use xlink:href="#SVGID_5_"  overflow="visible"/>
		</clipPath>
		<g clip-path="url(#SVGID_6_)">
			<g>
				<g>
					<g>
						<g>
							<path fill="#5C4E9A" d="M65.487,79.221c-5.859-10.463-17.049-17.557-29.869-17.557c-12.82,0-24.009,7.094-29.87,17.557h3.295
								c5.559-8.833,15.391-14.722,26.575-14.722c11.188,0,21.018,5.889,26.576,14.722"/>
							<path fill="#5C4E9A" d="M59.559,79.221c-5.268-7.519-13.99-12.447-23.846-12.447c-9.856,0-18.579,4.929-23.847,12.447h2.646
								c4.945-6.28,12.608-10.324,21.201-10.324c8.594,0,16.256,4.044,21.201,10.324H59.559"/>
							<path fill="#5C4E9A" d="M72.87,79.042c-6.418-14.073-20.611-23.884-37.061-23.884c-16.451,0-30.644,9.811-37.063,23.884
								h4.727C9.565,67.387,21.77,59.408,35.809,59.408c14.037,0,26.242,7.979,32.336,19.634"/>
						</g>
					</g>
				</g>
			</g>
		</g>
	</g>
	<path display="inline" fill="#5C4E9C" d="M49.2,39.881L36.458,28.958c0.594-1.115,0.93-2.387,0.93-3.738
		c0-4.401-3.567-7.969-7.968-7.969c-0.805,0-1.583,0.119-2.315,0.342l4.604,4.604c0.688,0.69,0.688,1.816,0,2.505L28.9,27.509
		c-0.689,0.69-1.815,0.69-2.504,0l-4.604-4.604c-0.223,0.732-0.342,1.51-0.342,2.314c0,4.401,3.567,7.969,7.969,7.969
		c1.352,0,2.623-0.336,3.738-0.931L44.079,45c0.635,0.739,1.717,0.781,2.406,0.093l2.807-2.809
		C49.981,41.596,49.94,40.515,49.2,39.881"/>
</g>
<g id="guest" display="none">
	<ellipse display="inline" fill="#CBBCF1" cx="36.007" cy="35.945" rx="36.007" ry="35.944"/>
	<path display="inline" fill="#5C4E9C" d="M28.381,27.103c0,3.808,3.087,6.893,6.893,6.893c3.807,0,6.895-3.085,6.895-6.893
		c0-3.807-3.088-6.893-6.895-6.893C31.468,20.21,28.381,23.296,28.381,27.103 M42.168,35.72H28.381
		c-3.806,0-6.893,3.085-6.893,6.893v1.723h0.217h27.139h0.217v-1.723C49.061,38.805,45.975,35.72,42.168,35.72"/>
	<g display="inline">
		<defs>
			<circle id="SVGID_7_" cx="35.945" cy="35.737" r="36.07"/>
		</defs>
		<clipPath id="SVGID_8_">
			<use xlink:href="#SVGID_7_"  overflow="visible"/>
		</clipPath>
		<g clip-path="url(#SVGID_8_)">
			<g>
				<g>
					<g>
						<g>
							<path fill="#5C4E9A" d="M65.487,79.221c-5.859-10.463-17.049-17.557-29.869-17.557c-12.82,0-24.009,7.094-29.87,17.557h3.295
								c5.559-8.833,15.391-14.722,26.575-14.722c11.188,0,21.018,5.889,26.576,14.722"/>
							<path fill="#5C4E9A" d="M59.559,79.221c-5.268-7.519-13.99-12.447-23.846-12.447c-9.856,0-18.579,4.929-23.847,12.447h2.646
								c4.945-6.28,12.608-10.324,21.201-10.324c8.594,0,16.256,4.044,21.201,10.324H59.559"/>
							<path fill="#5C4E9A" d="M72.87,79.042c-6.418-14.073-20.611-23.884-37.061-23.884c-16.451,0-30.644,9.811-37.063,23.884
								h4.727C9.565,67.387,21.77,59.408,35.809,59.408c14.037,0,26.242,7.979,32.336,19.634"/>
						</g>
					</g>
				</g>
			</g>
		</g>
	</g>
</g>
</svg>
