<?xml version="1.0" encoding="utf-8"?>
<!-- Generator: Adobe Illustrator 15.0.0, SVG Export Plug-In . SVG Version: 6.00 Build 0)  -->
<!DOCTYPE svg PUBLIC "-//W3C//DTD SVG 1.1//EN" "http://www.w3.org/Graphics/SVG/1.1/DTD/svg11.dtd">
<svg version="1.1" id="v3" xmlns="http://www.w3.org/2000/svg" xmlns:xlink="http://www.w3.org/1999/xlink" x="0px" y="0px"
	 width="40px" height="40px" viewBox="0 0 40 40" enable-background="new 0 0 40 40" xml:space="preserve">
<g>
	<rect x="20.08" y="31.367" fill="#FFFFFF" width="3.77" height="3.767"/>
	<rect x="20.08" y="25.709" fill="#FFFFFF" width="3.77" height="3.771"/>
	<rect x="20.08" y="20.058" fill="#FFFFFF" width="3.77" height="3.768"/>
	<rect x="25.734" y="25.709" fill="#FFFFFF" width="3.77" height="3.771"/>
	<rect x="25.734" y="20.058" fill="#FFFFFF" width="3.77" height="3.768"/>
	<rect x="14.425" y="25.709" fill="#FFFFFF" width="3.77" height="3.771"/>
	<rect x="8.771" y="31.367" fill="#FFFFFF" width="3.768" height="3.767"/>
	<rect x="14.425" y="20.058" fill="#FFFFFF" width="3.77" height="3.768"/>
	<rect x="8.771" y="25.709" fill="#FFFFFF" width="3.768" height="3.771"/>
	<rect x="14.425" y="31.367" fill="#FFFFFF" width="3.77" height="3.767"/>
</g>
<path fill="#FFFFFF" d="M31.704,14.109c-3.342,0-6.144-2.277-6.961-5.361H12.539v1.883H8.771V8.748H5v30.157h28.273V13.933
	C32.768,14.045,32.244,14.109,31.704,14.109z M31.388,37.022H6.885V16.286h24.503V37.022z"/>
<g>
	<path fill="#FFFFFF" d="M31.704,0.333c-3.632,0-6.567,2.938-6.567,6.567c0,3.628,2.936,6.568,6.567,6.568
		c3.627,0,6.565-2.939,6.565-6.568C38.27,3.271,35.331,0.333,31.704,0.333z M33.731,10.479c-0.531,0.482-1.199,0.723-2.006,0.723
		c-0.558,0-1.041-0.107-1.452-0.322c-0.41-0.215-0.729-0.514-0.955-0.898c-0.452-0.746-0.678-1.68-0.678-2.803
		c0-0.723,0.089-1.358,0.266-1.904c0.177-0.546,0.42-0.978,0.729-1.294c0.603-0.633,1.349-0.949,2.238-0.949
		c0.368,0,0.721,0.055,1.057,0.164c0.335,0.109,0.593,0.22,0.773,0.333c0.181,0.113,0.381,0.256,0.599,0.429l-0.836,1.243
		c-0.045-0.045-0.111-0.105-0.197-0.181c-0.087-0.075-0.259-0.173-0.515-0.294s-0.505-0.181-0.746-0.181
		c-0.489,0-0.868,0.164-1.136,0.491c-0.267,0.328-0.431,0.774-0.491,1.339c0.489-0.316,1.01-0.475,1.56-0.475
		c0.738,0,1.354,0.241,1.848,0.723c0.493,0.482,0.74,1.125,0.74,1.927S34.263,9.997,33.731,10.479z"/>
	<path fill="#FFFFFF" d="M31.776,7.394c-0.351,0-0.644,0.104-0.881,0.311c-0.237,0.208-0.356,0.477-0.356,0.808
		s0.113,0.616,0.339,0.853c0.227,0.237,0.509,0.356,0.848,0.356s0.622-0.105,0.848-0.316c0.226-0.21,0.339-0.484,0.339-0.819
		c0-0.335-0.102-0.618-0.305-0.847C32.403,7.508,32.127,7.394,31.776,7.394z"/>
</g>
<line fill="none" stroke="#FFFFFF" stroke-width="0.25" stroke-miterlimit="10" x1="-94.375" y1="51.167" x2="-94.375" y2="39.417"/>
<path fill="#F5F5F5" d="M-97.75,45.834h0.557v0.559h-0.557V45.834z M-96.914,45.834h0.557v0.559h-0.557V45.834z M-96.078,45.834
	h0.558v0.559h-0.558V45.834z M-98.586,47.506h0.558v0.559h-0.558V47.506z M-97.75,47.506h0.557v0.559h-0.557V47.506z
	 M-96.914,47.506h0.557v0.559h-0.557V47.506z M-97.75,46.67h0.557v0.559h-0.557V46.67z M-96.914,46.67h0.557v0.559h-0.557V46.67z
	 M-96.078,46.67h0.558v0.559h-0.558V46.67z M-98.586,46.67h0.558v0.559h-0.558V46.67z M-95.521,44.162v0.279h-0.558v-0.279h-1.951
	v0.279h-0.558v-0.279h-0.557v4.459h4.18v-4.459H-95.521z M-95.243,48.342h-3.622v-3.064h3.622V48.342z"/>
</svg>
