<?xml version="1.0" encoding="utf-8"?>
<!-- Generator: Adobe Illustrator 16.0.0, SVG Export Plug-In . SVG Version: 6.00 Build 0)  -->
<!DOCTYPE svg PUBLIC "-//W3C//DTD SVG 1.1//EN" "http://www.w3.org/Graphics/SVG/1.1/DTD/svg11.dtd">
<svg version="1.1" id="Layer_1" xmlns="http://www.w3.org/2000/svg" xmlns:xlink="http://www.w3.org/1999/xlink" x="0px" y="0px"
	 width="18px" height="18px" viewBox="0 0 18 18" enable-background="new 0 0 18 18" xml:space="preserve">
<path fill="#FFFFFF" d="M14.157,2.841v4.056L12.7,5.438l-2.24,2.238L9.325,6.542l2.237-2.239l-1.459-1.46L14.157,2.841L14.157,2.841
	z M5.939,4.303l2.238,2.239L7.043,7.676L4.804,5.438l-1.461,1.46V2.841h4.055L5.939,4.303z M12.7,11.062l1.457-1.46v4.055h-4.054
	l1.459-1.462L9.325,9.956l1.135-1.134L12.7,11.062z M8.177,9.956l-2.238,2.238l1.459,1.462H3.343V9.602l1.46,1.46l2.239-2.24
	L8.177,9.956z"/>
</svg>
