<?xml version="1.0" encoding="utf-8"?>
<!-- Generator: Adobe Illustrator 16.0.0, SVG Export Plug-In . SVG Version: 6.00 Build 0)  -->
<!DOCTYPE svg PUBLIC "-//W3C//DTD SVG 1.1//EN" "http://www.w3.org/Graphics/SVG/1.1/DTD/svg11.dtd">
<svg version="1.1" id="Layer_1" xmlns="http://www.w3.org/2000/svg" xmlns:xlink="http://www.w3.org/1999/xlink" x="0px" y="0px"
	 width="200px" height="200px" viewBox="0 0 200 200" enable-background="new 0 0 200 200" xml:space="preserve">
<g>
	<g>
		<path fill="#FFFFFF" d="M151.742,135.652l-26.926-22.899c-2.784-2.506-5.76-3.657-8.164-3.545
			c6.357-7.444,10.197-17.102,10.197-27.657c0-23.54-19.086-42.624-42.624-42.624c-23.54,0-42.624,19.084-42.624,42.624
			c0,23.538,19.084,42.624,42.624,42.624c10.556,0,20.215-3.84,27.661-10.192c-0.113,2.406,1.035,5.383,3.545,8.164l22.899,26.926
			c3.92,4.354,10.323,4.723,14.233,0.818C156.471,145.982,156.104,139.573,151.742,135.652 M84.227,109.968
			c-15.692,0-28.417-12.724-28.417-28.417c0-15.693,12.725-28.417,28.417-28.417s28.416,12.724,28.416,28.417
			C112.643,97.244,99.918,109.968,84.227,109.968"/>
	</g>
</g>
<g>
	<path fill="#FFFFFF" d="M79.089,62.007h9.744v6.827l-1.651,19.818h-6.496l-1.597-19.818V62.007z M80.493,99.524
		c-0.936-0.936-1.404-2.083-1.404-3.44s0.468-2.505,1.404-3.441s2.083-1.404,3.441-1.404c1.357,0,2.505,0.468,3.44,1.404
		c0.936,0.936,1.404,2.083,1.404,3.441s-0.468,2.504-1.404,3.44s-2.083,1.404-3.44,1.404
		C82.575,100.928,81.429,100.46,80.493,99.524z"/>
</g>
</svg>
